<?xml version="1.0" encoding="UTF-8" standalone="no"?>
<!-- Created with Inkscape (http://www.inkscape.org/) -->
<svg
   xmlns:dc="http://purl.org/dc/elements/1.1/"
   xmlns:cc="http://creativecommons.org/ns#"
   xmlns:rdf="http://www.w3.org/1999/02/22-rdf-syntax-ns#"
   xmlns:svg="http://www.w3.org/2000/svg"
   xmlns="http://www.w3.org/2000/svg"
   xmlns:sodipodi="http://sodipodi.sourceforge.net/DTD/sodipodi-0.dtd"
   xmlns:inkscape="http://www.inkscape.org/namespaces/inkscape"
   version="1.0"
   width="744.09448"
   height="1052.3622"
   id="svg2"
   sodipodi:version="0.32"
   inkscape:version="0.46"
   sodipodi:docname="level4.svg"
   inkscape:output_extension="org.inkscape.output.svg.inkscape">
  <metadata
     id="metadata2395">
    <rdf:RDF>
      <cc:Work
         rdf:about="">
        <dc:format>image/svg+xml</dc:format>
        <dc:type
           rdf:resource="http://purl.org/dc/dcmitype/StillImage" />
      </cc:Work>
    </rdf:RDF>
  </metadata>
  <sodipodi:namedview
     inkscape:window-height="710"
     inkscape:window-width="982"
     inkscape:pageshadow="2"
     inkscape:pageopacity="0.0"
     guidetolerance="10.0"
     gridtolerance="10.0"
     objecttolerance="10.0"
     borderopacity="1.0"
     bordercolor="#666666"
     pagecolor="#ffffff"
     id="base"
     showgrid="false"
     inkscape:zoom="0.7406542"
     inkscape:cx="660.58444"
     inkscape:cy="607.06255"
     inkscape:window-x="32"
     inkscape:window-y="25"
     inkscape:current-layer="svg2"
     showguides="true"
     inkscape:guide-bbox="true" />
  <defs
     id="defs4">
    <inkscape:perspective
       sodipodi:type="inkscape:persp3d"
       inkscape:vp_x="0 : 526.18109 : 1"
       inkscape:vp_y="0 : 1000 : 0"
       inkscape:vp_z="744.09448 : 526.18109 : 1"
       inkscape:persp3d-origin="372.04724 : 350.78739 : 1"
       id="perspective2397" />
  </defs>
  <path
     style="fill:#439f49;fill-opacity:1;fill-rule:evenodd;stroke:#0000ff;stroke-width:1px;stroke-linecap:butt;stroke-linejoin:miter;stroke-opacity:1"
     d="M 430.90625 16.65625 L 281.125 30.25 L 158.71875 83.875 L 49.125 112 L -13.34375 198.15625 L -74.21875 284 L -156.6875 295.65625 L -233.6875 275.40625 L -306.625 307.8125 L -390.34375 341.59375 L -529.46875 336.1875 L -642.90625 344.28125 L -1063.0625 358.625 L -939.5 1365.125 L 1477.4688 1408.8125 L 1621.0312 388.84375 L 1149.6875 372.5625 L 976.9375 224.34375 L 828.34375 156.28125 L 637.65625 111 L 554.34375 31.8125 L 430.90625 16.65625 z M 555.78125 99.1875 L 720.53125 246.96875 L 721.25 500.125 L 733.96875 511.4375 L 968.75 510.71875 L 1006.2188 546.78125 L 1007.625 636.59375 L 980.75 670.53125 L 558.625 667 L 531.75 638.71875 L 540.9375 279.5 L 531.03125 266.78125 L 353.5625 265.34375 L 344.375 278.09375 L 340.8125 726.375 L 319.625 756.78125 L -7.78125 755.375 L -26.875 769.53125 L -31.8125 862.84375 L -16.96875 881.9375 L 353.5625 877 L 484.375 734.875 L 751.65625 735.59375 L 932.6875 881.9375 L 935.5 1143.5938 L 906.5 1178.9375 C 906.50003 1178.9375 610.93014 1186.0043 606.6875 1182.4688 C 602.44485 1178.9332 568.5 1151.3438 568.5 1151.3438 C 568.5 1151.3438 574.15993 1017.7035 576.28125 1014.875 C 578.4026 1012.0466 598.21875 986.59375 598.21875 986.59375 C 598.21874 986.59374 731.16361 988.01961 735.40625 987.3125 C 739.64889 986.6054 749.53125 978.8125 749.53125 978.8125 L 748.125 963.96875 L 737.5 955.5 L 531.75 959.03125 L 369.125 1046 L -298.40625 1054.4688 C -298.40626 1054.4687 -361.32046 852.95343 -359.90625 850.125 C -358.49203 847.29658 -350.71875 783.65625 -350.71875 783.65625 L -182.4375 560.21875 C -182.4375 560.21873 117.38604 559.51961 123.75 558.8125 C 130.11396 558.1054 143.53125 545.375 143.53125 545.375 L 144.96875 123.9375 L 163.34375 102.71875 L 555.78125 99.1875 z "
     id="path3924" />
  <rect
     style="opacity:1;fill:#ff0000;fill-opacity:1;fill-rule:evenodd;stroke:none;stroke-width:1px;stroke-linecap:butt;stroke-linejoin:miter;marker:none;marker-start:none;marker-mid:none;marker-end:none;stroke-miterlimit:4;stroke-dasharray:none;stroke-dashoffset:0;stroke-opacity:1;visibility:visible;display:inline;overflow:visible;enable-background:accumulate"
     id="rect3171"
     width="20.237734"
     height="20.237734"
     x="932.20709"
     y="588.28351" />
  <path
     style="fill:none;fill-rule:evenodd;stroke:#000000;stroke-width:0.94072473px;stroke-linecap:butt;stroke-linejoin:miter;stroke-opacity:1"
     d="M 555.00486,113.77864 L 712.49928,255.50781 L 709.4866,510.64919 L 724.98531,526.56762 C 805.98832,526.14129 891.03423,525.71496 967.99432,525.28862 L 994.69138,549.14285 L 995.18504,635.20719 L 977.02125,659.04933 L 559.28275,655.20719 L 542.74318,637.40994 L 552.91875,266.18486 L 540.00156,258.12027 L 343.00993,256.83723 L 332.34943,270.7678 L 328.19461,724.60074 C 330.45491,724.56819 318.73858,745.53565 313.01056,745.5031 L -23.006997,743.59391 L -43.736044,761.47045 L -46.736044,873.72088 L -25.019816,894.61656 L 357.88835,892.5906 L 485.70562,751.9916 L 743.47045,749.86131 L 920.28433,888.33002 L 922.41462,1143.3977 L 901,1167.3977 L 604.99999,1167.3977 L 579.43829,1147.3977 L 586.82915,1020.105 L 602.00067,999.30714 L 738.0294,1001.0075 L 757.25217,988.2353 L 756.25218,960.7175 C 756.30744,960.79249 745.40429,943.86747 739.98035,943.94246 L 525.11595,946.91294 L 363.74665,1034.7873 L -281.19799,1041.7107 L -341.49749,846.90023 L -336.54113,795.24621 L -172.55331,568.78685 C -71.368196,569.07172 40.282095,569.35658 131.00203,569.64145 L 153.38329,555.71009 L 155.39528,130.06258 L 166.99893,115.03157 L 555.00486,113.77864 z"
     id="path3391"
     sodipodi:nodetypes="ccccccccccccccccccccccccccccccccccccccccccccc" />
  <rect
     y="958.08417"
     x="283.26566"
     height="20.237734"
     width="20.237734"
     id="rect3401"
     style="opacity:1;fill:#0000ff;fill-opacity:1;fill-rule:evenodd;stroke:none;stroke-width:1px;stroke-linecap:butt;stroke-linejoin:miter;marker:none;marker-start:none;marker-mid:none;marker-end:none;stroke-miterlimit:4;stroke-dasharray:none;stroke-dashoffset:0;stroke-opacity:1;visibility:visible;display:inline;overflow:visible;enable-background:accumulate" />
  <rect
     style="opacity:1;fill:#0000ff;fill-opacity:1;fill-rule:evenodd;stroke:none;stroke-width:1px;stroke-linecap:butt;stroke-linejoin:miter;marker:none;marker-start:none;marker-mid:none;marker-end:none;stroke-miterlimit:4;stroke-dasharray:none;stroke-dashoffset:0;stroke-opacity:1;visibility:visible;display:inline;overflow:visible;enable-background:accumulate"
     id="rect3403"
     width="20.237734"
     height="20.237734"
     x="207.91501"
     y="631.66241" />
  <rect
     style="opacity:1;fill:#0000ff;fill-opacity:1;fill-rule:evenodd;stroke:none;stroke-width:1px;stroke-linecap:butt;stroke-linejoin:miter;marker:none;marker-start:none;marker-mid:none;marker-end:none;stroke-miterlimit:4;stroke-dasharray:none;stroke-dashoffset:0;stroke-opacity:1;visibility:visible;display:inline;overflow:visible;enable-background:accumulate"
     id="rect3407"
     width="20.237734"
     height="20.237734"
     x="455.36789"
     y="189.10094" />
  <rect
     style="opacity:1;fill:#0000ff;fill-opacity:1;fill-rule:evenodd;stroke:none;stroke-width:1px;stroke-linecap:butt;stroke-linejoin:miter;marker:none;marker-start:none;marker-mid:none;marker-end:none;stroke-miterlimit:4;stroke-dasharray:none;stroke-dashoffset:0;stroke-opacity:1;visibility:visible;display:inline;overflow:visible;enable-background:accumulate"
     id="rect3467"
     width="20.237734"
     height="20.237734"
     x="649.67517"
     y="1079.5106" />
  <path
     style="fill:none;fill-rule:evenodd;stroke:#0000ff;stroke-width:1px;stroke-linecap:butt;stroke-linejoin:miter;stroke-opacity:1"
     d="M 1072.5759,166.43026 L 1072.3879,170.3777"
     id="path4170" />
  <path
     style="fill:none;fill-rule:evenodd;stroke:#0000ff;stroke-width:0.85955364px;stroke-linecap:butt;stroke-linejoin:miter;stroke-opacity:1"
     d="M 1070.5621,168.30999 L 1074.5897,168.30999"
     id="path4172" />
  <path
     id="path4174"
     d="M 1167.7448,166.43026 L 1167.5568,170.3777"
     style="fill:none;fill-rule:evenodd;stroke:#0000ff;stroke-width:1px;stroke-linecap:butt;stroke-linejoin:miter;stroke-opacity:1" />
  <path
     id="path4176"
     d="M 1165.731,168.30999 L 1169.7586,168.30999"
     style="fill:none;fill-rule:evenodd;stroke:#0000ff;stroke-width:0.85955364px;stroke-linecap:butt;stroke-linejoin:miter;stroke-opacity:1" />
  <path
     style="fill:none;fill-rule:evenodd;stroke:#0000ff;stroke-width:1px;stroke-linecap:butt;stroke-linejoin:miter;stroke-opacity:1"
     d="M 726.47758,91.338824 L 726.28958,95.286264"
     id="path4178" />
  <path
     style="fill:none;fill-rule:evenodd;stroke:#0000ff;stroke-width:0.85955364px;stroke-linecap:butt;stroke-linejoin:miter;stroke-opacity:1"
     d="M 724.46378,93.218554 L 728.49138,93.218554"
     id="path4180" />
  <path
     sodipodi:nodetypes="cccccc"
     id="path2552"
     d="M 1059.6549,294.56173 L 1071.5198,266.51949 L 1069.905,235.04433 L 1078.5023,234.83639 L 1082.3175,226.74328 L 1095.2876,227.13548"
     style="fill:none;fill-rule:evenodd;stroke:#0000ff;stroke-width:0.65279067px;stroke-linecap:butt;stroke-linejoin:miter;stroke-opacity:1" />
  <path
     id="path2554"
     d="M 1070.0053,235.34918 L 1056.0362,222.48638 L 1057.9672,207.23532 L 1048.0677,198.22251"
     style="fill:none;fill-rule:evenodd;stroke:#0000ff;stroke-width:0.65279067px;stroke-linecap:butt;stroke-linejoin:miter;stroke-opacity:1" />
  <path
     id="path2556"
     d="M 1097.9808,234.43679 L 1095.3154,226.54549 L 1100.0226,216.82579"
     style="fill:none;fill-rule:evenodd;stroke:#0000ff;stroke-width:0.65279067px;stroke-linecap:butt;stroke-linejoin:miter;stroke-opacity:1" />
  <path
     id="path2558"
     d="M 1098.1769,216.19037 L 1102.7184,218.81454 L 1106.2209,217.38046 L 1106.5358,214.02221 L 1100.9978,207.77605 L 1095.8959,210.38542 L 1098.1769,216.19037 z"
     style="fill:none;fill-rule:evenodd;stroke:#0000ff;stroke-width:0.66689658px;stroke-linecap:butt;stroke-linejoin:miter;stroke-opacity:1"
     sodipodi:nodetypes="ccccccc" />
  <path
     sodipodi:nodetypes="ccccccc"
     style="fill:none;fill-rule:evenodd;stroke:#0000ff;stroke-width:0.66689658px;stroke-linecap:butt;stroke-linejoin:miter;stroke-opacity:1"
     d="M 1098.085,241.63187 L 1102.6265,244.25603 L 1106.129,242.82195 L 1106.4439,239.46371 L 1100.9059,233.21755 L 1095.804,235.82692 L 1098.085,241.63187 z"
     id="path2560" />
  <path
     id="path2562"
     d="M 1040.3829,197.02708 L 1044.9244,199.65125 L 1048.4269,198.21717 L 1048.7418,194.85892 L 1043.2038,188.61277 L 1038.1019,191.22213 L 1040.3829,197.02708 z"
     style="fill:none;fill-rule:evenodd;stroke:#0000ff;stroke-width:0.66689658px;stroke-linecap:butt;stroke-linejoin:miter;stroke-opacity:1"
     sodipodi:nodetypes="ccccccc" />
  <path
     id="path2564"
     d="M 1108.5482,210.28229 L 1111.3187,209.13432 L 1111.8547,206.995 L 1110.4081,205.63154 L 1105.6195,205.92666 L 1105.0796,209.23161 L 1108.5482,210.28229 z"
     style="fill:none;fill-rule:evenodd;stroke:#0000ff;stroke-width:0.38785663px;stroke-linecap:butt;stroke-linejoin:miter;stroke-opacity:1"
     sodipodi:nodetypes="ccccccc" />
  <path
     sodipodi:nodetypes="ccccccc"
     style="fill:none;fill-rule:evenodd;stroke:#0000ff;stroke-width:0.38785663px;stroke-linecap:butt;stroke-linejoin:miter;stroke-opacity:1"
     d="M 1098.6556,249.81324 L 1101.4262,248.66528 L 1101.9622,246.52596 L 1100.5155,245.1625 L 1095.727,245.45762 L 1095.1871,248.76256 L 1098.6556,249.81324 z"
     id="path2566" />
  <path
     id="path2568"
     d="M 1107.5857,236.15513 L 1110.2224,234.93692 L 1110.7905,232.8067 L 1109.4731,231.50315 L 1104.967,231.93967 L 1104.36,235.22183 L 1107.5857,236.15513 z"
     style="fill:none;fill-rule:evenodd;stroke:#0000ff;stroke-width:0.3734574px;stroke-linecap:butt;stroke-linejoin:miter;stroke-opacity:1"
     sodipodi:nodetypes="ccccccc" />
  <path
     sodipodi:nodetypes="ccccccc"
     style="fill:none;fill-rule:evenodd;stroke:#0000ff;stroke-width:0.3734574px;stroke-linecap:butt;stroke-linejoin:miter;stroke-opacity:1"
     d="M 1048.3637,188.86505 L 1051.0005,187.64684 L 1051.5686,185.51662 L 1050.2512,184.21307 L 1045.7451,184.64959 L 1045.138,187.93176 L 1048.3637,188.86505 z"
     id="path2570" />
  <path
     id="path2572"
     d="M 1040.985,205.50996 L 1043.6217,204.29175 L 1044.1899,202.16153 L 1042.8725,200.85798 L 1038.3664,201.29449 L 1037.7593,204.57666 L 1040.985,205.50996 z"
     style="fill:none;fill-rule:evenodd;stroke:#0000ff;stroke-width:0.3734574px;stroke-linecap:butt;stroke-linejoin:miter;stroke-opacity:1"
     sodipodi:nodetypes="ccccccc" />
  <path
     sodipodi:nodetypes="ccccccc"
     style="fill:none;fill-rule:evenodd;stroke:#0000ff;stroke-width:0.3734574px;stroke-linecap:butt;stroke-linejoin:miter;stroke-opacity:1"
     d="M 1034.3863,191.16034 L 1037.023,189.94213 L 1037.5912,187.81191 L 1036.2738,186.50836 L 1031.7676,186.94487 L 1031.1606,190.22704 L 1034.3863,191.16034 z"
     id="path2574" />
  <path
     sodipodi:nodetypes="ccccccc"
     style="fill:none;fill-rule:evenodd;stroke:#0000ff;stroke-width:0.38785663px;stroke-linecap:butt;stroke-linejoin:miter;stroke-opacity:1"
     d="M 1094.0513,208.96913 L 1096.8219,207.82117 L 1097.3579,205.68185 L 1095.9112,204.31839 L 1091.1227,204.61351 L 1090.5828,207.91845 L 1094.0513,208.96913 z"
     id="path2576" />
  <path
     style="fill:none;fill-rule:evenodd;stroke:#0000ff;stroke-width:0.78797853px;stroke-linecap:butt;stroke-linejoin:miter;stroke-opacity:1"
     d="M 666.76087,117.85924 L 655.17807,101.92062 L 665.14257,85.707563 L 656.88377,74.523383"
     id="path2652" />
  <path
     inkscape:transform-center-y="8.7389484"
     inkscape:transform-center-x="33.988367"
     id="path2654"
     d="M 662.43837,111.94844 L 670.35347,91.831103 L 690.77627,83.714553 L 696.25587,69.523793"
     style="fill:none;fill-rule:evenodd;stroke:#0000ff;stroke-width:0.78797853px;stroke-linecap:butt;stroke-linejoin:miter;stroke-opacity:1" />
  <path
     id="path2656"
     d="M 698.58007,69.119813 L 702.34087,65.463531 L 701.91377,61.702981 L 698.76797,60.486291 L 691.25057,64.115941 L 692.37357,69.735323 L 698.58007,69.119813 z"
     style="fill:none;fill-rule:evenodd;stroke:#0000ff;stroke-width:0.66689658px;stroke-linecap:butt;stroke-linejoin:miter;stroke-opacity:1"
     sodipodi:nodetypes="ccccccc" />
  <path
     sodipodi:nodetypes="ccccccc"
     style="fill:none;fill-rule:evenodd;stroke:#0000ff;stroke-width:0.38785663px;stroke-linecap:butt;stroke-linejoin:miter;stroke-opacity:1"
     d="M 710.14327,61.790411 L 709.79237,58.812051 L 707.87957,57.714211 L 706.17397,58.735341 L 705.15507,63.423521 L 708.18857,64.842251 L 710.14327,61.790411 z"
     id="path2658" />
  <path
     id="path2660"
     d="M 690.36087,60.566651 L 690.00997,57.588291 L 688.09727,56.490441 L 686.39167,57.511581 L 685.37277,62.199761 L 688.40617,63.618481 L 690.36087,60.566651 z"
     style="fill:none;fill-rule:evenodd;stroke:#0000ff;stroke-width:0.38785663px;stroke-linecap:butt;stroke-linejoin:miter;stroke-opacity:1"
     sodipodi:nodetypes="ccccccc" />
  <path
     sodipodi:nodetypes="ccccccc"
     style="fill:none;fill-rule:evenodd;stroke:#0000ff;stroke-width:0.38785663px;stroke-linecap:butt;stroke-linejoin:miter;stroke-opacity:1"
     d="M 647.18677,68.742213 L 646.83587,65.763843 L 644.92317,64.666001 L 643.21747,65.687101 L 642.19867,70.375323 L 645.23197,71.794003 L 647.18677,68.742213 z"
     id="path2662" />
  <path
     id="path2664"
     d="M 666.57547,63.901491 L 666.22467,60.923121 L 664.31187,59.825281 L 662.60627,60.846421 L 661.58737,65.534601 L 664.62077,66.953323 L 666.57547,63.901491 z"
     style="fill:none;fill-rule:evenodd;stroke:#0000ff;stroke-width:0.38785663px;stroke-linecap:butt;stroke-linejoin:miter;stroke-opacity:1"
     sodipodi:nodetypes="ccccccc" />
  <path
     sodipodi:nodetypes="ccccccc"
     style="fill:none;fill-rule:evenodd;stroke:#0000ff;stroke-width:0.66689658px;stroke-linecap:butt;stroke-linejoin:miter;stroke-opacity:1"
     d="M 657.37717,75.181673 L 661.13797,71.525393 L 660.71087,67.764843 L 657.56507,66.548153 L 650.04767,70.177813 L 651.17067,75.797193 L 657.37717,75.181673 z"
     id="path2666" />
  <path
     style="fill:none;fill-rule:evenodd;stroke:#0000ff;stroke-width:0.45208579px;stroke-linecap:butt;stroke-linejoin:miter;stroke-opacity:1"
     d="M 1012.5688,745.98342 L 1030.0962,760.97797 L 1038.1334,779.65582 L 1033.5318,785.18473 L 1010.4905,759.56013 L 1012.5688,745.98342 z"
     id="path3648" />
  <path
     style="fill:none;fill-rule:evenodd;stroke:#0000ff;stroke-width:1px;stroke-linecap:butt;stroke-linejoin:miter;stroke-opacity:1"
     d="M -198.47832,215.39534 L -200.14605,218.97813"
     id="path4106"
     sodipodi:nodetypes="cc" />
  <path
     style="fill:none;fill-rule:evenodd;stroke:#0000ff;stroke-width:0.85955364px;stroke-linecap:butt;stroke-linejoin:miter;stroke-opacity:1"
     d="M -201.05366,216.37328 L -197.32559,217.89732"
     id="path4108"
     sodipodi:nodetypes="cc" />
  <path
     id="path4118"
     d="M -234.56598,139.92123 L -236.2337,143.50401"
     style="fill:none;fill-rule:evenodd;stroke:#0000ff;stroke-width:1px;stroke-linecap:butt;stroke-linejoin:miter;stroke-opacity:1" />
  <path
     id="path4120"
     d="M -237.14131,140.89916 L -233.41324,142.4232"
     style="fill:none;fill-rule:evenodd;stroke:#0000ff;stroke-width:0.85955364px;stroke-linecap:butt;stroke-linejoin:miter;stroke-opacity:1" />
  <path
     id="path5849"
     d="M 350.52029,24.348622 L 367.08045,2.5389692 L 358.7343,-9.234882 L 370.50648,-24.601553"
     style="fill:none;fill-rule:evenodd;stroke:#0000ff;stroke-width:0.82179725px;stroke-linecap:butt;stroke-linejoin:miter;stroke-opacity:1" />
  <path
     style="fill:none;fill-rule:evenodd;stroke:#0000ff;stroke-width:0.82179725px;stroke-linecap:butt;stroke-linejoin:miter;stroke-opacity:1"
     d="M 356.69292,16.247613 L 351.4906,-0.49146313 L 329.43314,1.0036024 L 325.88355,-10.853783"
     id="path5851"
     inkscape:transform-center-x="-37.649103"
     inkscape:transform-center-y="-7.3545099" />
  <path
     sodipodi:nodetypes="ccccccc"
     style="fill:none;fill-rule:evenodd;stroke:#0000ff;stroke-width:0.69551867px;stroke-linecap:butt;stroke-linejoin:miter;stroke-opacity:1"
     d="M 323.27086,-10.153301 L 319.63524,-12.083807 L 320.87147,-16.125685 L 324.75546,-18.873302 L 332.74797,-18.768457 L 330.33911,-12.496596 L 323.27086,-10.153301 z"
     id="path5853" />
  <path
     id="path5855"
     d="M 311.32117,-12.096566 L 312.31489,-15.303785 L 314.74714,-17.339821 L 316.52158,-17.114386 L 316.7775,-12.818198 L 312.98376,-9.918177 L 311.32117,-12.096566 z"
     style="fill:none;fill-rule:evenodd;stroke:#0000ff;stroke-width:0.40450281px;stroke-linecap:butt;stroke-linejoin:miter;stroke-opacity:1"
     sodipodi:nodetypes="ccccccc" />
  <path
     sodipodi:nodetypes="ccccccc"
     style="fill:none;fill-rule:evenodd;stroke:#0000ff;stroke-width:0.40450281px;stroke-linecap:butt;stroke-linejoin:miter;stroke-opacity:1"
     d="M 334.47841,-22.816227 L 335.47215,-26.02345 L 337.90428,-28.059447 L 339.67871,-27.834001 L 339.93463,-23.537814 L 336.14101,-20.63785 L 334.47841,-22.816227 z"
     id="path5857" />
  <path
     id="path5859"
     d="M 382.87937,-35.14334 L 383.8731,-38.350571 L 386.30524,-40.386562 L 388.07979,-40.161204 L 388.33559,-35.864927 L 384.54208,-32.965048 L 382.87937,-35.14334 z"
     style="fill:none;fill-rule:evenodd;stroke:#0000ff;stroke-width:0.40450281px;stroke-linecap:butt;stroke-linejoin:miter;stroke-opacity:1"
     sodipodi:nodetypes="ccccccc" />
  <path
     sodipodi:nodetypes="ccccccc"
     style="fill:none;fill-rule:evenodd;stroke:#0000ff;stroke-width:0.40450281px;stroke-linecap:butt;stroke-linejoin:miter;stroke-opacity:1"
     d="M 361.37392,-30.800581 L 362.36753,-34.007763 L 364.79979,-36.043798 L 366.57421,-35.818352 L 366.83014,-31.522165 L 363.03651,-28.622198 L 361.37392,-30.800581 z"
     id="path5861" />
  <path
     id="path5863"
     d="M 369.80514,-23.693594 L 366.16951,-25.624096 L 367.40574,-29.665974 L 371.28974,-32.413592 L 379.28223,-32.308734 L 376.87338,-26.036878 L 369.80514,-23.693594 z"
     style="fill:none;fill-rule:evenodd;stroke:#0000ff;stroke-width:0.69551867px;stroke-linecap:butt;stroke-linejoin:miter;stroke-opacity:1"
     sodipodi:nodetypes="ccccccc" />
  <path
     style="fill:none;fill-rule:evenodd;stroke:#0000ff;stroke-width:1px;stroke-linecap:butt;stroke-linejoin:miter;stroke-opacity:1"
     d="M 62.609173,62.165724 L 60.941453,65.748504"
     id="path5865" />
  <path
     style="fill:none;fill-rule:evenodd;stroke:#0000ff;stroke-width:0.85955364px;stroke-linecap:butt;stroke-linejoin:miter;stroke-opacity:1"
     d="M 60.033843,63.143654 L 63.761913,64.667694"
     id="path5867" />
  <path
     id="path5869"
     d="M -47.10065,62.165724 L -48.76837,65.748504"
     style="fill:none;fill-rule:evenodd;stroke:#0000ff;stroke-width:1px;stroke-linecap:butt;stroke-linejoin:miter;stroke-opacity:1" />
  <path
     id="path5871"
     d="M -49.67598,63.143654 L -45.94791,64.667694"
     style="fill:none;fill-rule:evenodd;stroke:#0000ff;stroke-width:0.85955364px;stroke-linecap:butt;stroke-linejoin:miter;stroke-opacity:1" />
  <path
     style="fill:none;fill-rule:evenodd;stroke:#0000ff;stroke-width:1px;stroke-linecap:butt;stroke-linejoin:miter;stroke-opacity:1"
     d="M 186.16587,16.364536 L 184.49815,19.947316"
     id="path5873" />
  <path
     style="fill:none;fill-rule:evenodd;stroke:#0000ff;stroke-width:0.85955364px;stroke-linecap:butt;stroke-linejoin:miter;stroke-opacity:1"
     d="M 183.59054,17.342466 L 187.31861,18.866506"
     id="path5875" />
  <path
     id="path5877"
     d="M 549.37995,-32.632084 L 547.71223,-29.049304"
     style="fill:none;fill-rule:evenodd;stroke:#0000ff;stroke-width:1px;stroke-linecap:butt;stroke-linejoin:miter;stroke-opacity:1" />
  <path
     id="path5879"
     d="M 546.80462,-31.654154 L 550.53269,-30.130114"
     style="fill:none;fill-rule:evenodd;stroke:#0000ff;stroke-width:0.85955364px;stroke-linecap:butt;stroke-linejoin:miter;stroke-opacity:1" />
  <path
     style="fill:none;fill-rule:evenodd;stroke:#0000ff;stroke-width:1px;stroke-linecap:butt;stroke-linejoin:miter;stroke-opacity:1"
     d="M 900.87744,105.83663 L 899.20972,109.41941"
     id="path5881" />
  <path
     style="fill:none;fill-rule:evenodd;stroke:#0000ff;stroke-width:0.85955364px;stroke-linecap:butt;stroke-linejoin:miter;stroke-opacity:1"
     d="M 898.30211,106.81456 L 902.03018,108.3386"
     id="path5883" />
  <path
     id="path5885"
     d="M 1217.2252,319.93055 L 1215.5575,323.51333"
     style="fill:none;fill-rule:evenodd;stroke:#0000ff;stroke-width:1px;stroke-linecap:butt;stroke-linejoin:miter;stroke-opacity:1" />
  <path
     id="path5887"
     d="M 1214.6499,320.90848 L 1218.3779,322.43252"
     style="fill:none;fill-rule:evenodd;stroke:#0000ff;stroke-width:0.85955364px;stroke-linecap:butt;stroke-linejoin:miter;stroke-opacity:1" />
  <path
     style="fill:none;fill-rule:evenodd;stroke:#0000ff;stroke-width:0.65279067px;stroke-linecap:butt;stroke-linejoin:miter;stroke-opacity:1"
     d="M 491.59782,23.607484 C 491.59782,23.607484 477.71099,7.5168441 478.52713,3.3544341 C 479.34327,-0.80798593 489.2708,-37.393046 489.2708,-37.393046 L 497.8423,-38.090176 L 501.19054,-46.387386 L 514.16194,-46.734336"
     id="path3320"
     sodipodi:nodetypes="cscccc" />
  <path
     style="fill:none;fill-rule:evenodd;stroke:#0000ff;stroke-width:0.65279067px;stroke-linecap:butt;stroke-linejoin:miter;stroke-opacity:1"
     d="M 489.38833,-37.094406 L 474.70943,-49.140946 L 475.76891,-64.477226 L 465.37234,-72.911746"
     id="path3326" />
  <path
     style="fill:none;fill-rule:evenodd;stroke:#0000ff;stroke-width:0.65279067px;stroke-linecap:butt;stroke-linejoin:miter;stroke-opacity:1"
     d="M 517.26642,-39.598216 L 514.15602,-47.324946 L 518.30222,-57.296906"
     id="path3328" />
  <path
     sodipodi:nodetypes="ccccccc"
     style="fill:none;fill-rule:evenodd;stroke:#0000ff;stroke-width:0.66689658px;stroke-linecap:butt;stroke-linejoin:miter;stroke-opacity:1"
     d="M 516.42326,-57.826206 L 521.10687,-55.464876 L 524.52204,-57.096066 L 524.64521,-60.466786 L 518.76051,-66.387486 L 513.8155,-63.491856 L 516.42326,-57.826206 z"
     id="path2532" />
  <path
     id="path2534"
     d="M 517.78013,-32.420746 L 522.46375,-30.059436 L 525.87891,-31.690616 L 526.00209,-35.061336 L 520.11738,-40.982026 L 515.17237,-38.086406 L 517.78013,-32.420746 z"
     style="fill:none;fill-rule:evenodd;stroke:#0000ff;stroke-width:0.66689658px;stroke-linecap:butt;stroke-linejoin:miter;stroke-opacity:1"
     sodipodi:nodetypes="ccccccc" />
  <path
     sodipodi:nodetypes="ccccccc"
     style="fill:none;fill-rule:evenodd;stroke:#0000ff;stroke-width:0.66689658px;stroke-linecap:butt;stroke-linejoin:miter;stroke-opacity:1"
     d="M 457.63189,-73.667666 L 462.31551,-71.306346 L 465.73068,-72.937526 L 465.85385,-76.308256 L 459.96915,-82.228946 L 455.02414,-79.333316 L 457.63189,-73.667666 z"
     id="path2536" />
  <path
     sodipodi:nodetypes="ccccccc"
     style="fill:none;fill-rule:evenodd;stroke:#0000ff;stroke-width:0.38785663px;stroke-linecap:butt;stroke-linejoin:miter;stroke-opacity:1"
     d="M 526.44133,-64.315226 L 529.14202,-65.619086 L 529.55536,-67.785446 L 528.03341,-69.064326 L 523.26944,-68.497036 L 522.91861,-65.166706 L 526.44133,-64.315226 z"
     id="path2538" />
  <path
     id="path2540"
     d="M 518.81568,-24.285126 L 521.51637,-25.588986 L 521.92971,-27.755356 L 520.40776,-29.034226 L 515.64379,-28.466936 L 515.29297,-25.136616 L 518.81568,-24.285126 z"
     style="fill:none;fill-rule:evenodd;stroke:#0000ff;stroke-width:0.38785663px;stroke-linecap:butt;stroke-linejoin:miter;stroke-opacity:1"
     sodipodi:nodetypes="ccccccc" />
  <path
     sodipodi:nodetypes="ccccccc"
     style="fill:none;fill-rule:evenodd;stroke:#0000ff;stroke-width:0.3734574px;stroke-linecap:butt;stroke-linejoin:miter;stroke-opacity:1"
     d="M 526.95358,-38.429556 L 529.51666,-39.795926 L 529.96258,-41.955036 L 528.5731,-43.181466 L 524.09914,-42.489086 L 523.67998,-39.177666 L 526.95358,-38.429556 z"
     id="path2542" />
  <path
     id="path2544"
     d="M 465.13509,-82.270876 L 467.69817,-83.637236 L 468.14409,-85.796346 L 466.75461,-87.022776 L 462.28065,-86.330396 L 461.86149,-83.018986 L 465.13509,-82.270876 z"
     style="fill:none;fill-rule:evenodd;stroke:#0000ff;stroke-width:0.3734574px;stroke-linecap:butt;stroke-linejoin:miter;stroke-opacity:1"
     sodipodi:nodetypes="ccccccc" />
  <path
     sodipodi:nodetypes="ccccccc"
     style="fill:none;fill-rule:evenodd;stroke:#0000ff;stroke-width:0.3734574px;stroke-linecap:butt;stroke-linejoin:miter;stroke-opacity:1"
     d="M 458.71608,-65.232836 L 461.27916,-66.599196 L 461.72508,-68.758316 L 460.3356,-69.984736 L 455.86164,-69.292356 L 455.44248,-65.980946 L 458.71608,-65.232836 z"
     id="path2546" />
  <path
     id="path2548"
     d="M 451.31102,-79.183456 L 453.8741,-80.549816 L 454.32002,-82.708926 L 452.93054,-83.935356 L 448.45658,-83.242966 L 448.03742,-79.931566 L 451.31102,-79.183456 z"
     style="fill:none;fill-rule:evenodd;stroke:#0000ff;stroke-width:0.3734574px;stroke-linecap:butt;stroke-linejoin:miter;stroke-opacity:1"
     sodipodi:nodetypes="ccccccc" />
  <path
     id="path2550"
     d="M 511.89324,-64.800816 L 514.59393,-66.104666 L 515.00727,-68.271036 L 513.48531,-69.549906 L 508.72134,-68.982616 L 508.37052,-65.652286 L 511.89324,-64.800816 z"
     style="fill:none;fill-rule:evenodd;stroke:#0000ff;stroke-width:0.38785663px;stroke-linecap:butt;stroke-linejoin:miter;stroke-opacity:1"
     sodipodi:nodetypes="ccccccc" />
  <path
     id="path5922"
     d="M -62.202099,449.48339 L -41.902915,438.52942 L -21.583969,437.75535 L -18.082409,444.03887 L -50.283939,456.31009 L -62.202099,449.48339 z"
     style="fill:none;fill-rule:evenodd;stroke:#0000ff;stroke-width:0.45208579px;stroke-linecap:butt;stroke-linejoin:miter;stroke-opacity:1" />
  <path
     id="path5950"
     d="M -168.87102,1157.6284 L -145.89216,1155.6236 L -126.93261,1162.9715 L -126.21028,1170.1284 L -160.63777,1168.6221 L -168.87102,1157.6284 z"
     style="fill:none;fill-rule:evenodd;stroke:#0000ff;stroke-width:0.45208579px;stroke-linecap:butt;stroke-linejoin:miter;stroke-opacity:1" />
  <path
     style="fill:none;fill-rule:evenodd;stroke:#0000ff;stroke-width:0.45208579px;stroke-linecap:butt;stroke-linejoin:miter;stroke-opacity:1"
     d="M 465.56047,1070.6417 L 481.90226,1086.9202 L 488.50232,1106.1529 L 483.49535,1111.3176 L 462.46024,1084.0221 L 465.56047,1070.6417 z"
     id="path5957" />
  <path
     style="fill:none;fill-rule:evenodd;stroke:#0000ff;stroke-width:1px;stroke-linecap:butt;stroke-linejoin:miter;stroke-opacity:1"
     d="M 840.33009,457.93699 L 838.73922,440.40512 L 824.30215,435.99638 L 816.85561,451.90484 L 840.33009,457.93699 z"
     id="path5959" />
  <path
     sodipodi:type="spiral"
     style="fill:none;fill-rule:evenodd;stroke:#0000ff;stroke-width:1px;stroke-linecap:butt;stroke-linejoin:miter;stroke-opacity:1"
     id="path5961"
     sodipodi:cx="866.80127"
     sodipodi:cy="411.71234"
     sodipodi:expansion="1"
     sodipodi:revolution="3"
     sodipodi:radius="48.727413"
     sodipodi:argument="-18.024961"
     sodipodi:t0="0"
     d="M 866.80127,411.71234 C 868.45979,413.50625 865.20137,414.83305 863.81967,414.46891 C 860.07535,413.48213 859.65788,408.62019 861.28813,405.74914 C 864.20427,400.61351 871.26711,400.27546 875.74607,403.44263 C 882.31913,408.09058 882.57309,417.60882 877.82755,423.63874 C 871.50249,431.67568 859.45381,431.83692 851.89327,425.49519 C 842.3791,417.51477 842.31469,402.90418 850.26185,393.82274 C 859.88693,382.82391 877.07562,382.8584 887.67247,392.41635 C 900.16049,403.68007 900.02595,423.4563 888.85383,435.56514 C 875.95518,449.54527 853.58542,449.30999 839.96687,436.52147 C 824.49261,421.99034 824.82907,397.023 839.23557,381.89634 C 855.39748,364.92652 882.96528,365.36446 899.59887,381.39007 C 918.06531,399.18154 917.52569,429.35189 899.88011,447.49154" />
  <path
     style="fill:none;fill-rule:evenodd;stroke:#0000ff;stroke-width:1px;stroke-linecap:butt;stroke-linejoin:miter;stroke-opacity:1"
     d="M 845.19873,446.81645 L 876.25236,450.19184 L 877.60252,461.66818 C 877.60252,461.66818 860.72555,469.09405 858.02523,467.74389 C 855.32492,466.39373 848.57413,460.9931 848.57413,460.9931 L 845.19873,446.81645 z"
     id="path5963" />
  <path
     style="fill:none;fill-rule:evenodd;stroke:#0000ff;stroke-width:1px;stroke-linecap:butt;stroke-linejoin:miter;stroke-opacity:1"
     d="M 878.2776,448.1666 C 879.62776,450.86692 881.65299,464.36849 881.65299,464.36849 L 920.80757,459.64294 L 916.08201,450.19184 L 878.2776,448.1666 z"
     id="path5965" />
  <path
     style="fill:none;fill-rule:evenodd;stroke:#0000ff;stroke-width:0.83489424000000001px;stroke-linecap:butt;stroke-linejoin:miter;stroke-opacity:1"
     d="M 802.12947,424.58353 C 801.26782,422.41749 793.29295,413.79888 793.29295,413.79888 L 798.32391,409.11824 L 808.73115,423.11408 L 802.12947,424.58353 z"
     id="path5967" />
  <path
     style="fill:none;fill-rule:evenodd;stroke:#0000ff;stroke-width:0.83489424000000001px;stroke-linecap:butt;stroke-linejoin:miter;stroke-opacity:1"
     d="M 947.006,440.67831 L 934.22904,438.4217 L 921.76608,450.96399 L 926.42444,456.03821 C 926.42444,456.03821 936.48636,446.67691 938.71235,446.37391 C 940.93835,446.07092 948.95817,446.69175 948.95817,446.69175 L 947.006,440.67831 z"
     id="path5969" />
  <path
     style="fill:none;fill-rule:evenodd;stroke:#0000ff;stroke-width:0.92317945000000001px;stroke-linecap:butt;stroke-linejoin:miter;stroke-opacity:1"
     d="M 816.41185,431.87283 L 816.1015,441.65018 L 806.79214,445.83983 L 786.47408,437.66941 L 779.29259,427.38358 L 787.00611,420.90823 L 795.8278,432.083 L 816.41185,431.87283 z"
     id="path5971" />
  <path
     style="fill:none;fill-rule:evenodd;stroke:#0000ff;stroke-width:0.7401256px;stroke-linecap:butt;stroke-linejoin:miter;stroke-opacity:1"
     d="M -493.03648,811.38887 C -491.64744,809.76032 -483.23574,790.19315 -483.23574,790.19315 C -483.23574,790.19315 -472.09569,783.33271 -470.21227,783.64066 C -468.32884,783.9486 -447.4027,793.20216 -447.4027,793.20216 L -442.73376,805.43091 L -453.00121,830.85811 L -465.59489,824.95514 L -463.01605,817.88786 L -477.61676,811.19281 L -480.25279,819.04603 L -493.03648,811.38887 z"
     id="path5973" />
  <path
     style="fill:none;fill-rule:evenodd;stroke:#0000ff;stroke-width:0.7401256px;stroke-linecap:butt;stroke-linejoin:miter;stroke-opacity:1"
     d="M -478.81909,796.20793 L -477.38232,803.53265 C -477.38232,803.53265 -469.53337,804.19189 -469.64015,802.08373 C -469.74694,799.97555 -470.79375,793.33562 -470.79375,793.33562 L -478.81909,796.20793 z"
     id="path5975" />
  <path
     style="fill:none;fill-rule:evenodd;stroke:#0000ff;stroke-width:0.7401256px;stroke-linecap:butt;stroke-linejoin:miter;stroke-opacity:1"
     d="M -452.90435,800.27894 C -454.28784,800.5364 -462.45894,802.77887 -462.19928,804.17412 C -461.93963,805.56934 -459.25783,812.28805 -459.25783,812.28805 L -451.97324,809.1279 L -452.90435,800.27894 z"
     id="path5977" />
  <path
     style="fill:none;fill-rule:evenodd;stroke:#0000ff;stroke-width:0.7401256px;stroke-linecap:butt;stroke-linejoin:miter;stroke-opacity:1"
     d="M -476.77255,891.55412 L -473.93417,899.99758 L -468.6122,898.23853 L -471.09578,889.09145 L -476.77255,891.55412 z"
     id="path5979" />
  <path
     style="fill:none;fill-rule:evenodd;stroke:#0000ff;stroke-width:0.7401256px;stroke-linecap:butt;stroke-linejoin:miter;stroke-opacity:1"
     d="M -474.64376,937.64132 L -462.22584,934.12321 L -458.67786,947.49201 L -438.80918,960.15719 L -440.58317,952.76917 L -433.84202,952.06555 L -427.10085,967.54517 L -485.64249,982.32127 C -485.64249,982.32127 -491.31926,970.00787 -489.19047,969.30427 C -487.06168,968.60067 -481.03012,966.84157 -481.03012,966.84157 L -476.77255,973.52597 L -472.51498,952.76917 C -472.51498,952.76917 -472.16018,951.01011 -472.16018,949.60287 C -472.16018,948.19563 -474.99856,937.99312 -474.64376,937.64132 z"
     id="path5981" />
  <path
     style="fill:none;fill-rule:evenodd;stroke:#0000ff;stroke-width:0.54786712px;stroke-linecap:butt;stroke-linejoin:miter;stroke-opacity:1"
     d="M 1001.3833,1064.8531 L 1005.8835,1111.5426 L 1048.6354,1108.6244 L 1046.3853,1089.1705 L 1021.6342,1091.1159 L 1018.259,1061.935 L 1001.3833,1064.8531 z"
     id="path5985" />
  <path
     style="fill:none;fill-rule:evenodd;stroke:#0000ff;stroke-width:0.54786712px;stroke-linecap:butt;stroke-linejoin:miter;stroke-opacity:1"
     d="M 1072.2614,1082.3616 L 1079.0117,1149.4777 C 1079.0117,1149.4777 1098.1376,1153.3685 1098.1376,1148.505 C 1098.1376,1143.6415 1089.1372,1080.4162 1089.1372,1080.4162 L 1072.2614,1082.3616 z"
     id="path5987" />
  <path
     style="fill:none;fill-rule:evenodd;stroke:#0000ff;stroke-width:0.54786712px;stroke-linecap:butt;stroke-linejoin:miter;stroke-opacity:1"
     d="M 1046.3335,972.85722 L 1035.7197,984.45982 L 1072.2367,1022.9002 L 1084.4345,1007.0915 L 1070.81,993.52842 L 1080.711,981.05542 L 1069.9777,969.48712 L 1057.8589,982.32252 L 1046.3335,972.85722 z"
     id="path5989" />
</svg>
