<?xml version="1.0" encoding="UTF-8" standalone="no"?>
<!-- Created with Inkscape (http://www.inkscape.org/) -->
<svg
   xmlns:dc="http://purl.org/dc/elements/1.1/"
   xmlns:cc="http://creativecommons.org/ns#"
   xmlns:rdf="http://www.w3.org/1999/02/22-rdf-syntax-ns#"
   xmlns:svg="http://www.w3.org/2000/svg"
   xmlns="http://www.w3.org/2000/svg"
   xmlns:sodipodi="http://sodipodi.sourceforge.net/DTD/sodipodi-0.dtd"
   xmlns:inkscape="http://www.inkscape.org/namespaces/inkscape"
   version="1.0"
   width="744.09448"
   height="1052.3622"
   id="svg2"
   sodipodi:version="0.32"
   inkscape:version="0.46"
   sodipodi:docname="level99.svg"
   inkscape:output_extension="org.inkscape.output.svg.inkscape">
  <metadata
     id="metadata3367">
    <rdf:RDF>
      <cc:Work
         rdf:about="">
        <dc:format>image/svg+xml</dc:format>
        <dc:type
           rdf:resource="http://purl.org/dc/dcmitype/StillImage" />
      </cc:Work>
    </rdf:RDF>
  </metadata>
  <sodipodi:namedview
     inkscape:window-height="675"
     inkscape:window-width="942"
     inkscape:pageshadow="2"
     inkscape:pageopacity="0.0"
     guidetolerance="10.0"
     gridtolerance="10.0"
     objecttolerance="10.0"
     borderopacity="1.0"
     bordercolor="#666666"
     pagecolor="#ffffff"
     id="base"
     showgrid="false"
     inkscape:zoom="0.25"
     inkscape:cx="177.01952"
     inkscape:cy="413.42922"
     inkscape:window-x="50"
     inkscape:window-y="24"
     inkscape:current-layer="svg2" />
  <defs
     id="defs4">
    <inkscape:perspective
       sodipodi:type="inkscape:persp3d"
       inkscape:vp_x="0 : 526.18109 : 1"
       inkscape:vp_y="0 : 1000 : 0"
       inkscape:vp_z="744.09448 : 526.18109 : 1"
       inkscape:persp3d-origin="372.04724 : 350.78739 : 1"
       id="perspective3369" />
    <inkscape:perspective
       id="perspective3465"
       inkscape:persp3d-origin="372.04724 : 350.78739 : 1"
       inkscape:vp_z="744.09448 : 526.18109 : 1"
       inkscape:vp_y="0 : 1000 : 0"
       inkscape:vp_x="0 : 526.18109 : 1"
       sodipodi:type="inkscape:persp3d" />
  </defs>
  <path
     style="fill:#007900;fill-opacity:1;fill-rule:evenodd;stroke:#006b00;stroke-width:1px;stroke-linecap:butt;stroke-linejoin:miter;stroke-opacity:1"
     d="M -212.53125,-254.40625 L -372.1875,-248.25 L -455.09375,-165.375 L -699.0938,-59.6875 L -661.9375,728.5312 L 1213.0312,675.5312 L 1199.8125,-97.53125 L 840.5625,-33.34375 L 763.8125,-21.0625 L 683.96875,-45.625 L 534.78125,-59.875 L 437.65625,-25.5 L 338.3125,-21.3125 L 178.25,-75.21875 L 124.87082,-84.562772 L 94.5,-65.53125 L 99.34375,-15.03125 C 99.343751,-15.03125 145.58386,38.78125 148.34375,38.78125 C 151.10364,38.781249 268.40625,89.84375 268.40625,89.84375 C 268.40625,89.843753 396.74012,110.5625 399.5,110.5625 C 402.25989,110.5625 551.28125,118.84375 551.28125,118.84375 L 627.1875,166.4375 L 634.78125,190.59375 L 623.75,233.375 L 536.8125,325.125 L 401.5625,372.0625 C 401.5625,372.0625 217.32733,394.80509 213.1875,396.875 C 209.04767,398.94491 14.5,400.34375 14.5,400.34375 L -22.78125,377.5625 L -53.125,398.28125 L -104.875,414.84375 L -147.65625,405.15625 L -159.375,391.375 L -160.0625,340.3125 C -156.61263,338.24259 -100.03125,308.5625 -100.03125,308.5625 L 6.90625,323.0625 C 6.9062499,323.06251 160.76147,314.7763 166.28125,316.15625 C 171.80102,317.53618 250.46875,329.28125 250.46875,329.28125 L 390.53125,316.84375 C 390.53125,316.84374 481.61264,287.16861 485.0625,283.71875 C 488.51237,280.26888 514.71875,251.29361 514.71875,247.84375 C 514.71876,244.39389 516.78619,234.75989 515.40625,232 C 514.02628,229.24011 489.875,194.71875 489.875,194.71875 L 342.90625,174.71875 L 117.28125,125.71875 C 117.28125,125.71875 22.762358,62.243467 19.3125,55.34375 C 15.862641,48.444031 11.03125,39.46875 11.03125,39.46875 C 11.03125,39.468749 5.814857,-38.449404 6.40625,-66.125 L -5.3301516,-74.94329 L -28.973911,-73.585513 L -56.323014,-69.086867 L -69.664214,-72.074747 L -108.15625,-140.8125 L -151.125,-208.34375 L -212.53125,-254.40625 z M -1.6875,188.65625 C 3.3343581,188.68854 6.4065657,190.43047 9.65625,194.9375 C 12.695079,200.61575 12.953427,207.13917 13.0625,213.4375 C 13.026063,214.79654 13.044169,216.13526 13.0625,217.5 C 14.439306,216.2889 15.864875,215.11913 17.3125,214 C 18.114144,211.5899 19.058243,209.22461 19.75,206.78125 L 47.65625,194.75 C 46.657686,195.94653 45.80465,197.23048 45.03125,198.59375 C 48.853698,197.07037 52.737043,195.70491 56.625,194.46875 C 65.81659,191.9254 75.339148,190.10021 84.90625,189.9375 C 86.756397,189.90603 88.587716,190.0455 90.4375,190.09375 C 95.985304,190.68078 102.12894,191.39455 106.8125,194.78125 C 108.89302,196.28568 109.31745,197.25331 110.71875,199.28125 C 110.99486,200.20314 111.4416,201.07651 111.5625,202.03125 C 111.72835,203.34093 111.3354,205.87882 111.15625,207.25 C 110.86837,209.45323 110.59485,211.60209 110.15625,213.78125 C 109.71036,214.60518 109.41792,215.53505 108.8125,216.25 C 107.99535,217.215 107.05452,218.10187 105.96875,218.75 C 94.132808,225.81515 87.997888,230.10871 80.6875,233.34375 C 80.692401,233.38535 80.681423,233.42724 80.6875,233.46875 C 81.068147,236.06905 82.266427,238.69679 83.34375,241.03125 C 86.087353,246.97638 89.521847,252.46767 93,258 C 98.923293,266.2623 104.8648,274.6669 112.25,281.71875 C 116.05853,285.35536 118.17856,286.78318 122.28125,289.875 L 99.96875,303.8125 C 97.258959,301.21757 93.265199,297.4442 90.75,294.78125 C 83.654755,287.26921 77.486018,278.95888 71.15625,270.8125 C 67.279753,265.4353 63.284411,260.14426 59.65625,254.59375 C 58.341312,252.5821 56.122377,249.25016 55.1875,246.90625 C 54.821853,245.98951 54.709916,244.98831 54.46875,244.03125 C 54.410783,243.14931 54.190164,242.25034 54.3125,241.375 C 54.415474,240.6382 54.503957,239.72213 55.125,239.3125 C 65.149405,232.70058 74.052309,225.87461 84.78125,222.15625 C 84.849929,221.45983 84.920867,220.75195 85.03125,220.0625 C 85.154818,219.2907 85.235504,218.51275 85.40625,217.75 C 85.55424,217.0889 85.913485,216.4877 85.96875,215.8125 C 86.021453,215.16864 85.799326,214.51597 85.71875,213.875 C 85.338234,213.24148 85.04688,212.55255 84.59375,211.96875 C 80.908381,207.22062 74.282662,206.48946 68.78125,205.78125 C 67.024414,205.75774 65.256235,205.66708 63.5,205.71875 C 55.696798,205.94837 47.958392,207.37709 40.4375,209.46875 C 40.434262,209.47782 40.440738,209.49093 40.4375,209.5 C 35.996835,222.83133 33.551468,236.68589 31,250.46875 C 29.526534,259.41702 27.992661,268.34306 26.875,277.34375 L 3.15625,288.9375 C 5.1046076,279.75453 7.0972719,270.56013 8.71875,261.3125 C 10.911279,249.16941 12.455328,236.92334 14.8125,224.8125 L 13.1875,225.59375 C 13.192529,228.79454 13.073787,231.96243 12.53125,235.125 C 12.345721,236.20649 12.030834,237.27522 11.78125,238.34375 C 10.27377,244.20989 6.3051355,248.40273 1.75,252.125 C -12.212353,260.81693 -26.26603,269.53935 -41.125,276.625 C -46.922223,279.38947 -49.666381,280.39782 -55.65625,282.84375 C -65.375632,286.38892 -60.619193,284.72908 -70,287.84375 L -53.34375,274.9375 L -75.3125,286 C -74.488466,277.11592 -73.940637,268.22079 -73.03125,259.34375 C -71.824096,247.51476 -71.021847,235.66508 -69.46875,223.875 C -69.167109,221.50113 -68.738544,219.15028 -68.1875,216.84375 C -73.48317,218.65154 -78.745443,220.6398 -83.84375,222.96875 C -83.89466,222.98926 -88.813252,224.95567 -89.0625,225.0625 C -90.697964,225.76347 -92.266452,226.69422 -93.90625,227.375 C -94.180313,227.48878 -94.49592,227.51224 -94.78125,227.59375 L -70.625,208.84375 C -70.473639,208.72307 -70.329537,208.55503 -70.15625,208.46875 C -68.877949,207.83226 -67.377488,207.41406 -66.03125,206.96875 C -63.028978,205.97564 -64.413636,206.48756 -61.28125,205.21875 C -51.934722,201.67005 -42.250288,199.00774 -32.6875,196.09375 C -27.166553,194.22933 -21.4781,192.89467 -15.84375,191.4375 C -11.758198,190.38088 -8.1481101,189.36557 -3.96875,188.75 C -3.1655806,188.68733 -2.4049083,188.65164 -1.6875,188.65625 z M -106.8125,193.96875 C -107.28834,196.48304 -106.96775,199.05809 -107.03125,201.59375 C -107.05971,202.73032 -107.47109,210.04099 -107.5,210.5625 C -108.30215,224.39183 -107.57812,238.26393 -108.28125,252.09375 C -108.44691,255.35215 -108.7797,258.6221 -109.03125,261.875 C -109.69701,272.93139 -111.9476,283.77928 -114.0625,294.625 L -137.15625,305.65625 C -133.7552,294.80761 -130.77222,283.78139 -130.0625,272.375 C -129.81476,269.18246 -129.43285,265.98114 -129.3125,262.78125 C -128.81247,249.4853 -130.35861,236.17029 -131.6875,222.96875 C -132.28325,217.88992 -132.90932,212.79794 -133.90625,207.78125 L -106.8125,193.96875 z M -154.40625,203.53125 C -153.96308,203.52372 -153.53157,203.54962 -153.09375,203.59375 C -152.32537,203.6712 -151.59834,203.89816 -150.84375,204.0625 C -146.31201,205.51846 -143.18931,209.04748 -140.84375,213.03125 C -138.10834,218.41686 -139.27503,222.96064 -141.4375,228.28125 C -146.74789,238.00306 -155.16924,245.33538 -163.625,252.25 C -178.69832,263.99592 -195.63367,273.16298 -212.28125,282.40625 C -213.0133,282.8127 -215.25661,283.87551 -217.6875,285.03125 C -217.26037,290.38437 -216.63568,295.73066 -216,301.0625 C -215.68559,303.69955 -215.43864,306.34446 -215.03125,308.96875 C -214.49141,312.44625 -212.76254,320.52091 -212.03125,324 C -210.36751,333.40308 -209.53503,342.88431 -210.28125,352.40625 C -210.55175,355.02572 -210.44172,353.77549 -210.71875,356.125 L -237.28125,369.03125 C -236.60772,366.49874 -236.96845,367.82729 -236.1875,365.03125 C -235.26308,361.55564 -234.35023,358.08371 -233.9375,354.5 C -233.22311,348.29692 -233.43934,342.03571 -234.15625,335.84375 C -235.10401,330.71391 -236.28258,325.60458 -237,320.4375 C -237.36874,317.78169 -237.48814,315.10595 -237.75,312.4375 C -238.32479,306.57996 -239.04244,300.73402 -239.59375,294.875 C -240.53204,295.25104 -241.46486,295.63137 -242.40625,296 L -239.6875,293.875 C -239.88226,291.71196 -240.07042,289.54533 -240.1875,287.375 C -240.82002,274.25997 -241.45825,261.16164 -242.375,248.0625 C -242.44226,246.81719 -242.47893,245.55805 -242.53125,244.3125 C -245.41446,245.97567 -248.28127,247.65258 -251.21875,249.21875 C -255.02033,251.11421 -258.86485,252.97007 -262.96875,254.125 L -242.75,238.65625 C -242.79749,237.09168 -242.83336,235.53387 -242.875,233.96875 L -215.375,220.8125 C -215.80401,222.01657 -216.15665,223.24594 -216.40625,224.5 C -212.1407,222.45988 -207.7146,220.70729 -203.40625,218.78125 C -192.44099,213.88354 -181.24957,209.6303 -169.71875,206.28125 C -165.97912,205.32948 -162.19332,204.52945 -158.375,203.96875 C -157.08634,203.77952 -155.73575,203.55385 -154.40625,203.53125 z M -23.34375,205.59375 C -23.802846,205.58525 -24.270548,205.60276 -24.78125,205.625 C -25.36491,205.65041 -25.991475,205.69651 -26.65625,205.75 C -32.278681,206.6193 -37.864207,207.79638 -43.375,209.21875 C -43.595265,209.99791 -43.81859,210.77055 -44.03125,211.53125 C -47.451331,223.44312 -48.83745,235.78903 -50.25,248.0625 C -51.19042,256.56162 -51.629918,265.07871 -51.65625,273.625 L -49.75,272.15625 C -41.035013,269.44815 -45.53075,270.95143 -36.3125,267.5625 C -30.75696,265.17745 -28.215393,264.14336 -23.65625,261.875 C -19.532098,258.75921 -16.00258,255.44237 -13.90625,250.5 C -13.524419,249.48892 -13.066993,248.47075 -12.75,247.4375 C -10.634421,240.5417 -11.02106,233.27743 -11.625,226.1875 C -12.270284,220.61038 -12.690577,214.85754 -15.53125,209.875 C -18.051215,206.58222 -20.130079,205.65326 -23.34375,205.59375 z M -176.90625,220.8125 C -181.76323,220.7281 -186.63113,221.88079 -191.34375,222.90625 C -200.21023,225.30843 -208.84378,228.42658 -217.28125,232.03125 C -217.36474,233.17479 -217.43378,234.31059 -217.53125,235.4375 C -218.46203,248.94861 -218.39388,262.55694 -218.1875,276.09375 C -218.17361,276.74199 -218.14848,277.38368 -218.125,278.03125 C -214.38562,276.70873 -210.67542,275.30489 -207.0625,273.65625 C -204.86007,272.64574 -202.654,271.67214 -200.46875,270.625 C -199.45052,270.13708 -198.26065,269.52179 -197.09375,268.9375 C -195.77086,268.06343 -194.44655,267.20225 -193.15625,266.28125 C -191.14871,264.84828 -189.24337,263.2758 -187.28125,261.78125 C -183.12115,258.39067 -181.27716,257.07808 -177.5625,253.34375 C -173.65701,249.41759 -170.35609,244.95064 -167.5,240.21875 C -165.55318,236.15796 -164.07969,231.98563 -166.15625,227.65625 C -168.09474,224.26866 -170.89437,221.65805 -174.84375,220.90625 C -175.53737,220.83869 -176.2124,220.82456 -176.90625,220.8125 z M -254.625,228.59375 L -279.21875,246.46875 C -287.19851,245.4835 -295.25428,245.15887 -303.28125,244.8125 C -313.0709,244.57775 -322.89797,244.28013 -332.65625,245.25 C -332.67054,245.85777 -332.6663,246.45779 -332.6875,247.03125 C -332.05441,256.91196 -328.67628,266.15883 -323.8125,274.71875 C -322.64519,276.77312 -321.33974,278.74238 -320.09375,280.75 C -312.10166,291.6217 -301.65788,300.13791 -290.53125,307.59375 C -282.97266,312.48717 -275.33254,317.33478 -268.90625,323.6875 C -262.05425,331.08364 -255.96285,339.04919 -250.875,347.75 C -247.76386,354.03211 -244.87077,360.79428 -244.09375,367.84375 C -243.96518,369.01027 -244.01298,370.17102 -243.96875,371.34375 C -244.33594,380.51705 -248.50121,384.15512 -255.5,389.375 C -268.86205,397.03702 -275.72764,403.16805 -288.0625,407 C -295.31717,409.25375 -302.82178,410.10918 -310.34375,410.90625 C -316.25613,411.64361 -322.20889,411.78251 -328.15625,411.71875 L -305.28125,395.21875 C -299.82529,395.51414 -294.38491,395.53054 -288.9375,395 C -283.35979,394.38706 -277.86241,393.68886 -272.4375,392.1875 C -270.76396,390.00576 -269.62184,387.45373 -269.21875,384.1875 C -269.1511,383.10777 -268.98537,382.01926 -269,380.9375 C -269.09279,374.07858 -271.71277,367.49501 -274.34375,361.28125 C -275.12142,359.8536 -275.80959,358.38784 -276.65625,357 C -280.96698,349.93395 -286.51899,343.71829 -292.84375,338.40625 C -299.13464,332.45493 -305.49639,326.55763 -312.71875,321.71875 C -323.63335,313.57189 -333.86631,304.49055 -342.0625,293.53125 C -348.64449,282.99132 -354.97606,272.21252 -357.78125,259.96875 C -358.18424,256.9825 -358.90597,253.36317 -357.78125,250.40625 C -357.44644,249.52602 -357.07801,248.53332 -356.28125,248.03125 C -332.51225,233.05345 -339.01317,235.03658 -326.3125,231.75 C -312.05133,229.69479 -297.60228,230.87825 -283.25,230.25 C -273.70346,229.88179 -264.13927,229.49453 -254.625,228.59375 z"
     id="path5293"
     sodipodi:nodetypes="cccccccccccccccccscsccccccscccccccccsccssscccsccccccccccccccccccscscsscsscsscsccscsscsscssscscscsccccccsccsccccccccssccssccscccscsccccsccccsccccscsscccccscssccccccccccccccsccscccccccccsccccccccccscscscccccccccsccccsccsccccccscsccccssccc" />
  <rect
     width="20.237734"
     height="20.237734"
     x="46.554359"
     y="-42.244061"
     id="rect3171"
     style="opacity:1;fill:#ff0000;fill-opacity:1;fill-rule:evenodd;stroke:none;stroke-width:1px;stroke-linecap:butt;stroke-linejoin:miter;marker:none;marker-start:none;marker-mid:none;marker-end:none;stroke-miterlimit:4;stroke-dasharray:none;stroke-dashoffset:0;stroke-opacity:1;visibility:visible;display:inline;overflow:visible;enable-background:accumulate" />
  <path
     style="fill:none;fill-rule:evenodd;stroke:#000000;stroke-width:1px;stroke-linecap:butt;stroke-linejoin:miter;stroke-opacity:1"
     d="M 17.136108,-61.227268 L 22.569751,40.101051 L 29.838792,52.67036 L 125.51996,115.93712 L 346.95208,163.14003 L 500.07984,185.73515 L 526.19398,228.40635 C 531.36108,229.85107 526.63847,253.85285 524.60121,256.29757 L 489.05447,292.15365 L 388.63597,323.29315 L 250.0526,335.34388 L 162.68482,323.29315 L 9.0380458,329.31852 L -99.418504,315.76145 L -155.15312,347.39461 L -152.77445,386.64277 L -145.217,398.169 L -105.44387,406.14191 L -60.253639,394.09118 L -22.488062,365.9876 L 12.050728,391.0785 L 204.86237,389.57216 L 400.6867,363.96436 L 533.2447,317.26779 L 616.09346,228.40635 L 624.07446,189.99655 L 615.8593,169.89321 L 547.30811,130.46883 L 398.6867,120.43078 L 264.62235,102.34201 L 140.10239,49.113733 L 87.886799,-11.114541 L 86.861435,-59.099359"
     id="path2405"
     sodipodi:nodetypes="ccccccccccccccccccccccccccccccccc" />
  <path
     id="path3773"
     d="M -1.6875,188.65625 C 3.3343581,188.68854 6.4065657,190.43047 9.65625,194.9375 C 12.695079,200.61575 12.953427,207.13917 13.0625,213.4375 C 13.026063,214.79654 13.044169,216.13526 13.0625,217.5 C 14.439306,216.2889 15.864875,215.11913 17.3125,214 C 18.114144,211.5899 19.058243,209.22461 19.75,206.78125 L 47.65625,194.75 C 46.657686,195.94653 45.80465,197.23048 45.03125,198.59375 C 48.853698,197.07037 52.737043,195.70491 56.625,194.46875 C 65.81659,191.9254 75.339148,190.10021 84.90625,189.9375 C 86.756397,189.90603 88.587716,190.0455 90.4375,190.09375 C 95.985304,190.68078 102.12894,191.39455 106.8125,194.78125 C 108.89302,196.28568 109.31745,197.25331 110.71875,199.28125 C 110.99486,200.20314 111.4416,201.07651 111.5625,202.03125 C 111.72835,203.34093 111.3354,205.87882 111.15625,207.25 C 110.86837,209.45323 110.59485,211.60209 110.15625,213.78125 C 109.71036,214.60518 109.41792,215.53505 108.8125,216.25 C 107.99535,217.215 107.05452,218.10187 105.96875,218.75 C 94.132808,225.81515 87.997888,230.10871 80.6875,233.34375 C 80.692401,233.38535 80.681423,233.42724 80.6875,233.46875 C 81.068147,236.06905 82.266427,238.69679 83.34375,241.03125 C 86.087353,246.97638 89.521847,252.46767 93,258 C 98.923293,266.2623 104.8648,274.6669 112.25,281.71875 C 116.05853,285.35536 118.17856,286.78318 122.28125,289.875 L 99.96875,303.8125 C 97.258959,301.21757 93.265199,297.4442 90.75,294.78125 C 83.654755,287.26921 77.486018,278.95888 71.15625,270.8125 C 67.279753,265.4353 63.284411,260.14426 59.65625,254.59375 C 58.341312,252.5821 56.122377,249.25016 55.1875,246.90625 C 54.821853,245.98951 54.709916,244.98831 54.46875,244.03125 C 54.410783,243.14931 54.190164,242.25034 54.3125,241.375 C 54.415474,240.6382 54.503957,239.72213 55.125,239.3125 C 65.149405,232.70058 74.052309,225.87461 84.78125,222.15625 C 84.849929,221.45983 84.920867,220.75195 85.03125,220.0625 C 85.154818,219.2907 85.235504,218.51275 85.40625,217.75 C 85.55424,217.0889 85.913485,216.4877 85.96875,215.8125 C 86.021453,215.16864 85.799326,214.51597 85.71875,213.875 C 85.338234,213.24148 85.04688,212.55255 84.59375,211.96875 C 80.908381,207.22062 74.282662,206.48946 68.78125,205.78125 C 67.024414,205.75774 65.256235,205.66708 63.5,205.71875 C 55.696798,205.94837 47.958392,207.37709 40.4375,209.46875 C 40.434262,209.47782 40.440738,209.49093 40.4375,209.5 C 35.996835,222.83133 33.551468,236.68589 31,250.46875 C 29.526534,259.41702 27.992661,268.34306 26.875,277.34375 L 3.15625,288.9375 C 5.1046076,279.75453 7.0972719,270.56013 8.71875,261.3125 C 10.911279,249.16941 12.455328,236.92334 14.8125,224.8125 L 13.1875,225.59375 C 13.192529,228.79454 13.073787,231.96243 12.53125,235.125 C 12.345721,236.20649 12.030834,237.27522 11.78125,238.34375 C 10.27377,244.20989 6.3051355,248.40273 1.75,252.125 C -12.212353,260.81693 -26.26603,269.53935 -41.125,276.625 C -46.922223,279.38947 -49.666381,280.39782 -55.65625,282.84375 C -65.375632,286.38892 -60.619193,284.72908 -70,287.84375 L -53.34375,274.9375 L -75.3125,286 C -74.488466,277.11592 -73.940637,268.22079 -73.03125,259.34375 C -71.824096,247.51476 -71.021847,235.66508 -69.46875,223.875 C -69.167109,221.50113 -68.738544,219.15028 -68.1875,216.84375 C -73.48317,218.65154 -78.745443,220.6398 -83.84375,222.96875 C -83.89466,222.98926 -88.813252,224.95567 -89.0625,225.0625 C -90.697964,225.76347 -92.266452,226.69422 -93.90625,227.375 C -94.180313,227.48878 -94.49592,227.51224 -94.78125,227.59375 L -70.625,208.84375 C -70.473639,208.72307 -70.329537,208.55503 -70.15625,208.46875 C -68.877949,207.83226 -67.377488,207.41406 -66.03125,206.96875 C -63.028978,205.97564 -64.413636,206.48756 -61.28125,205.21875 C -51.934722,201.67005 -42.250288,199.00774 -32.6875,196.09375 C -27.166553,194.22933 -21.4781,192.89467 -15.84375,191.4375 C -11.758198,190.38088 -8.1481101,189.36557 -3.96875,188.75 C -3.1655806,188.68733 -2.4049083,188.65164 -1.6875,188.65625 z M -106.8125,193.96875 C -107.28834,196.48304 -106.96775,199.05809 -107.03125,201.59375 C -107.05971,202.73032 -107.47109,210.04099 -107.5,210.5625 C -108.30215,224.39183 -107.57812,238.26393 -108.28125,252.09375 C -108.44691,255.35215 -108.7797,258.6221 -109.03125,261.875 C -109.69701,272.93139 -111.9476,283.77928 -114.0625,294.625 L -137.15625,305.65625 C -133.7552,294.80761 -130.77222,283.78139 -130.0625,272.375 C -129.81476,269.18246 -129.43285,265.98114 -129.3125,262.78125 C -128.81247,249.4853 -130.35861,236.17029 -131.6875,222.96875 C -132.28325,217.88992 -132.90932,212.79794 -133.90625,207.78125 L -106.8125,193.96875 z M -154.40625,203.53125 C -153.96308,203.52372 -153.53157,203.54962 -153.09375,203.59375 C -152.32537,203.6712 -151.59834,203.89816 -150.84375,204.0625 C -146.31201,205.51846 -143.18931,209.04748 -140.84375,213.03125 C -138.10834,218.41686 -139.27503,222.96064 -141.4375,228.28125 C -146.74789,238.00306 -155.16924,245.33538 -163.625,252.25 C -178.69832,263.99592 -195.63367,273.16298 -212.28125,282.40625 C -213.0133,282.8127 -215.25661,283.87551 -217.6875,285.03125 C -217.26037,290.38437 -216.63568,295.73066 -216,301.0625 C -215.68559,303.69955 -215.43864,306.34446 -215.03125,308.96875 C -214.49141,312.44625 -212.76254,320.52091 -212.03125,324 C -210.36751,333.40308 -209.53503,342.88431 -210.28125,352.40625 C -210.55175,355.02572 -210.44172,353.77549 -210.71875,356.125 L -237.28125,369.03125 C -236.60772,366.49874 -236.96845,367.82729 -236.1875,365.03125 C -235.26308,361.55564 -234.35023,358.08371 -233.9375,354.5 C -233.22311,348.29692 -233.43934,342.03571 -234.15625,335.84375 C -235.10401,330.71391 -236.28258,325.60458 -237,320.4375 C -237.36874,317.78169 -237.48814,315.10595 -237.75,312.4375 C -238.32479,306.57996 -239.04244,300.73402 -239.59375,294.875 C -240.53204,295.25104 -241.46486,295.63137 -242.40625,296 L -239.6875,293.875 C -239.88226,291.71196 -240.07042,289.54533 -240.1875,287.375 C -240.82002,274.25997 -241.45825,261.16164 -242.375,248.0625 C -242.44226,246.81719 -242.47893,245.55805 -242.53125,244.3125 C -245.41446,245.97567 -248.28127,247.65258 -251.21875,249.21875 C -255.02033,251.11421 -258.86485,252.97007 -262.96875,254.125 L -242.75,238.65625 C -242.79749,237.09168 -242.83336,235.53387 -242.875,233.96875 L -215.375,220.8125 C -215.80401,222.01657 -216.15665,223.24594 -216.40625,224.5 C -212.1407,222.45988 -207.7146,220.70729 -203.40625,218.78125 C -192.44099,213.88354 -181.24957,209.6303 -169.71875,206.28125 C -165.97912,205.32948 -162.19332,204.52945 -158.375,203.96875 C -157.08634,203.77952 -155.73575,203.55385 -154.40625,203.53125 z M -23.34375,205.59375 C -23.802846,205.58525 -24.270548,205.60276 -24.78125,205.625 C -25.36491,205.65041 -25.991475,205.69651 -26.65625,205.75 C -32.278681,206.6193 -37.864207,207.79638 -43.375,209.21875 C -43.595265,209.99791 -43.81859,210.77055 -44.03125,211.53125 C -47.451331,223.44312 -48.83745,235.78903 -50.25,248.0625 C -51.19042,256.56162 -51.629918,265.07871 -51.65625,273.625 L -49.75,272.15625 C -41.035013,269.44815 -45.53075,270.95143 -36.3125,267.5625 C -30.75696,265.17745 -28.215393,264.14336 -23.65625,261.875 C -19.532098,258.75921 -16.00258,255.44237 -13.90625,250.5 C -13.524419,249.48892 -13.066993,248.47075 -12.75,247.4375 C -10.634421,240.5417 -11.02106,233.27743 -11.625,226.1875 C -12.270284,220.61038 -12.690577,214.85754 -15.53125,209.875 C -18.051215,206.58222 -20.130079,205.65326 -23.34375,205.59375 z M -176.90625,220.8125 C -181.76323,220.7281 -186.63113,221.88079 -191.34375,222.90625 C -200.21023,225.30843 -208.84378,228.42658 -217.28125,232.03125 C -217.36474,233.17479 -217.43378,234.31059 -217.53125,235.4375 C -218.46203,248.94861 -218.39388,262.55694 -218.1875,276.09375 C -218.17361,276.74199 -218.14848,277.38368 -218.125,278.03125 C -214.38562,276.70873 -210.67542,275.30489 -207.0625,273.65625 C -204.86007,272.64574 -202.654,271.67214 -200.46875,270.625 C -199.45052,270.13708 -198.26065,269.52179 -197.09375,268.9375 C -195.77086,268.06343 -194.44655,267.20225 -193.15625,266.28125 C -191.14871,264.84828 -189.24337,263.2758 -187.28125,261.78125 C -183.12115,258.39067 -181.27716,257.07808 -177.5625,253.34375 C -173.65701,249.41759 -170.35609,244.95064 -167.5,240.21875 C -165.55318,236.15796 -164.07969,231.98563 -166.15625,227.65625 C -168.09474,224.26866 -170.89437,221.65805 -174.84375,220.90625 C -175.53737,220.83869 -176.2124,220.82456 -176.90625,220.8125 z M -254.625,228.59375 L -279.21875,246.46875 C -287.19851,245.4835 -295.25428,245.15887 -303.28125,244.8125 C -313.0709,244.57775 -322.89797,244.28013 -332.65625,245.25 C -332.67054,245.85777 -332.6663,246.45779 -332.6875,247.03125 C -332.05441,256.91196 -328.67628,266.15883 -323.8125,274.71875 C -322.64519,276.77312 -321.33974,278.74238 -320.09375,280.75 C -312.10166,291.6217 -301.65788,300.13791 -290.53125,307.59375 C -282.97266,312.48717 -275.33254,317.33478 -268.90625,323.6875 C -262.05425,331.08364 -255.96285,339.04919 -250.875,347.75 C -247.76386,354.03211 -244.87077,360.79428 -244.09375,367.84375 C -243.96518,369.01027 -244.01298,370.17102 -243.96875,371.34375 C -244.33594,380.51705 -248.50121,384.15512 -255.5,389.375 C -268.86205,397.03702 -275.72764,403.16805 -288.0625,407 C -295.31717,409.25375 -302.82178,410.10918 -310.34375,410.90625 C -316.25613,411.64361 -322.20889,411.78251 -328.15625,411.71875 L -305.28125,395.21875 C -299.82529,395.51414 -294.38491,395.53054 -288.9375,395 C -283.35979,394.38706 -277.86241,393.68886 -272.4375,392.1875 C -270.76396,390.00576 -269.62184,387.45373 -269.21875,384.1875 C -269.1511,383.10777 -268.98537,382.01926 -269,380.9375 C -269.09279,374.07858 -271.71277,367.49501 -274.34375,361.28125 C -275.12142,359.8536 -275.80959,358.38784 -276.65625,357 C -280.96698,349.93395 -286.51899,343.71829 -292.84375,338.40625 C -299.13464,332.45493 -305.49639,326.55763 -312.71875,321.71875 C -323.63335,313.57189 -333.86631,304.49055 -342.0625,293.53125 C -348.64449,282.99132 -354.97606,272.21252 -357.78125,259.96875 C -358.18424,256.9825 -358.90597,253.36317 -357.78125,250.40625 C -357.44644,249.52602 -357.07801,248.53332 -356.28125,248.03125 C -332.51225,233.05345 -339.01317,235.03658 -326.3125,231.75 C -312.05133,229.69479 -297.60228,230.87825 -283.25,230.25 C -273.70346,229.88179 -264.13927,229.49453 -254.625,228.59375 z"
     style="fill:none;fill-opacity:1;fill-rule:evenodd;stroke:#0000ff;stroke-width:1px;stroke-linecap:butt;stroke-linejoin:miter;stroke-opacity:1"
     sodipodi:nodetypes="cccccccccscscsscsscsscsccscsscsscssscscscsccccccsccsccccccccssccssccscccscsccccsccccsccccscsscccccscssccccccccccccccsccscccccccccsccccccccccscscscccccccccsccccsccsccccccscsccccssccc" />
  <path
     id="path3390"
     d="M 499.65243,-66.816371 L 500.03131,-62.882661"
     style="fill:none;fill-rule:evenodd;stroke:#0000ff;stroke-width:1px;stroke-linecap:butt;stroke-linejoin:miter;stroke-opacity:1" />
  <path
     id="path3392"
     d="M 497.92838,-64.667791 L 501.91452,-65.244201"
     style="fill:none;fill-rule:evenodd;stroke:#0000ff;stroke-width:0.85955364px;stroke-linecap:butt;stroke-linejoin:miter;stroke-opacity:1" />
  <path
     style="fill:none;fill-rule:evenodd;stroke:#0000ff;stroke-width:1px;stroke-linecap:butt;stroke-linejoin:miter;stroke-opacity:1"
     d="M 387.84624,-161.25461 L 388.22512,-157.3209"
     id="path3394" />
  <path
     style="fill:none;fill-rule:evenodd;stroke:#0000ff;stroke-width:0.85955364px;stroke-linecap:butt;stroke-linejoin:miter;stroke-opacity:1"
     d="M 386.12219,-159.10603 L 390.10833,-159.68244"
     id="path3396" />
  <path
     id="path3398"
     d="M 285.80952,-86.355321 L 286.1884,-82.421611"
     style="fill:none;fill-rule:evenodd;stroke:#0000ff;stroke-width:1px;stroke-linecap:butt;stroke-linejoin:miter;stroke-opacity:1" />
  <path
     id="path3400"
     d="M 284.08547,-84.206741 L 288.07161,-84.783151"
     style="fill:none;fill-rule:evenodd;stroke:#0000ff;stroke-width:0.85955364px;stroke-linecap:butt;stroke-linejoin:miter;stroke-opacity:1" />
  <path
     style="fill:none;fill-rule:evenodd;stroke:#0000ff;stroke-width:0.82225484px;stroke-linecap:butt;stroke-linejoin:miter;stroke-opacity:1"
     d="M 419.90333,-25.932141 L 428.6829,-44.261251 L 414.51159,-57.664631 L 420.81153,-70.557821"
     id="path3444" />
  <path
     inkscape:transform-center-y="0.32721462"
     inkscape:transform-center-x="-38.039392"
     id="path3446"
     d="M 423.18794,-32.735971 L 410.33026,-50.439301 L 386.83953,-53.429311 L 377.8799,-65.942231"
     style="fill:none;fill-rule:evenodd;stroke:#0000ff;stroke-width:0.82225484px;stroke-linecap:butt;stroke-linejoin:miter;stroke-opacity:1" />
  <path
     id="path3448"
     d="M 375.3215,-65.775871 L 370.51766,-68.433701 L 370.13967,-72.202541 L 373.21244,-74.146801 L 382.00111,-72.420331 L 382.05094,-66.671721 L 375.3215,-65.775871 z"
     style="fill:none;fill-rule:evenodd;stroke:#0000ff;stroke-width:0.69590592px;stroke-linecap:butt;stroke-linejoin:miter;stroke-opacity:1"
     sodipodi:nodetypes="ccccccc" />
  <path
     sodipodi:nodetypes="ccccccc"
     style="fill:none;fill-rule:evenodd;stroke:#0000ff;stroke-width:0.40472803px;stroke-linecap:butt;stroke-linejoin:miter;stroke-opacity:1"
     d="M 361.41663,-70.133861 L 361.13068,-73.121841 L 362.91988,-74.653061 L 364.95762,-74.068701 L 367.0769,-69.744101 L 364.16811,-67.629951 L 361.41663,-70.133861 z"
     id="path3450" />
  <path
     id="path3452"
     d="M 382.16126,-76.094721 L 381.87532,-79.082691 L 383.66442,-80.613901 L 385.70215,-80.029541 L 387.82143,-75.704931 L 384.91276,-73.590811 L 382.16126,-76.094721 z"
     style="fill:none;fill-rule:evenodd;stroke:#0000ff;stroke-width:0.40472803px;stroke-linecap:butt;stroke-linejoin:miter;stroke-opacity:1"
     sodipodi:nodetypes="ccccccc" />
  <path
     sodipodi:nodetypes="ccccccc"
     style="fill:none;fill-rule:evenodd;stroke:#0000ff;stroke-width:0.40472803px;stroke-linecap:butt;stroke-linejoin:miter;stroke-opacity:1"
     d="M 429.83427,-78.530631 L 429.54832,-81.518601 L 431.33741,-83.049811 L 433.37526,-82.465511 L 435.49443,-78.140841 L 432.58585,-76.026781 L 429.83427,-78.530631 z"
     id="path3454" />
  <path
     id="path3456"
     d="M 408.1666,-78.576511 L 407.88054,-81.564461 L 409.66974,-83.095691 L 411.70749,-82.511321 L 413.82676,-78.186711 L 410.91808,-76.072601 L 408.1666,-78.576511 z"
     style="fill:none;fill-rule:evenodd;stroke:#0000ff;stroke-width:0.40472803px;stroke-linecap:butt;stroke-linejoin:miter;stroke-opacity:1"
     sodipodi:nodetypes="ccccccc" />
  <path
     sodipodi:nodetypes="ccccccc"
     style="fill:none;fill-rule:evenodd;stroke:#0000ff;stroke-width:0.69590592px;stroke-linecap:butt;stroke-linejoin:miter;stroke-opacity:1"
     d="M 420.43297,-69.797181 L 415.62914,-72.455021 L 415.25115,-76.223861 L 418.32391,-78.168111 L 427.11257,-76.441641 L 427.1624,-70.693031 L 420.43297,-69.797181 z"
     id="path3458" />
  <path
     style="fill:none;fill-rule:evenodd;stroke:#0000ff;stroke-width:1px;stroke-linecap:butt;stroke-linejoin:miter;stroke-opacity:1"
     d="M 116.80952,-114.35532 L 117.1884,-110.42161"
     id="path4318" />
  <path
     style="fill:none;fill-rule:evenodd;stroke:#0000ff;stroke-width:0.85955364px;stroke-linecap:butt;stroke-linejoin:miter;stroke-opacity:1"
     d="M 115.08547,-112.20674 L 119.07161,-112.78315"
     id="path4320" />
  <path
     id="path4322"
     d="M -22.190479,-103.35532 L -21.811599,-99.42161"
     style="fill:none;fill-rule:evenodd;stroke:#0000ff;stroke-width:1px;stroke-linecap:butt;stroke-linejoin:miter;stroke-opacity:1" />
  <path
     id="path4324"
     d="M -23.914529,-101.20674 L -19.928389,-101.78315"
     style="fill:none;fill-rule:evenodd;stroke:#0000ff;stroke-width:0.85955364px;stroke-linecap:butt;stroke-linejoin:miter;stroke-opacity:1" />
  <path
     style="fill:none;fill-rule:evenodd;stroke:#0000ff;stroke-width:1px;stroke-linecap:butt;stroke-linejoin:miter;stroke-opacity:1"
     d="M 25.809521,-173.35532 L 26.188401,-169.42161"
     id="path4326" />
  <path
     style="fill:none;fill-rule:evenodd;stroke:#0000ff;stroke-width:0.85955364px;stroke-linecap:butt;stroke-linejoin:miter;stroke-opacity:1"
     d="M 24.085471,-171.20674 L 28.071611,-171.78315"
     id="path4328" />
  <path
     id="path4330"
     d="M 206.80952,-160.35532 L 207.1884,-156.42161"
     style="fill:none;fill-rule:evenodd;stroke:#0000ff;stroke-width:1px;stroke-linecap:butt;stroke-linejoin:miter;stroke-opacity:1" />
  <path
     id="path4332"
     d="M 205.08547,-158.20674 L 209.07161,-158.78315"
     style="fill:none;fill-rule:evenodd;stroke:#0000ff;stroke-width:0.85955364px;stroke-linecap:butt;stroke-linejoin:miter;stroke-opacity:1" />
  <path
     style="fill:none;fill-rule:evenodd;stroke:#0000ff;stroke-width:1px;stroke-linecap:butt;stroke-linejoin:miter;stroke-opacity:1"
     d="M -66.190479,-160.35532 L -65.811599,-156.42161"
     id="path4334" />
  <path
     style="fill:none;fill-rule:evenodd;stroke:#0000ff;stroke-width:0.85955364px;stroke-linecap:butt;stroke-linejoin:miter;stroke-opacity:1"
     d="M -67.914529,-158.20674 L -63.928389,-158.78315"
     id="path4336" />
  <path
     id="path4338"
     d="M 412.80952,-136.35532 L 413.1884,-132.42161"
     style="fill:none;fill-rule:evenodd;stroke:#0000ff;stroke-width:1px;stroke-linecap:butt;stroke-linejoin:miter;stroke-opacity:1" />
  <path
     id="path4340"
     d="M 411.08547,-134.20674 L 415.07161,-134.78315"
     style="fill:none;fill-rule:evenodd;stroke:#0000ff;stroke-width:0.85955364px;stroke-linecap:butt;stroke-linejoin:miter;stroke-opacity:1" />
  <path
     style="fill:none;fill-rule:evenodd;stroke:#0000ff;stroke-width:0.67236388px;stroke-linecap:butt;stroke-linejoin:miter;stroke-opacity:1"
     d="M 7.7530705,527.29651 C 7.7530705,527.29651 35.060311,508.4925 37.884741,508.9848 C 40.709171,509.47708 52.828531,523.37123 52.828531,523.37123 L 36.309791,540.12839 L 7.7530705,527.29651 z"
     id="path3516" />
  <path
     style="fill:none;fill-rule:evenodd;stroke:#0000ff;stroke-width:0.59555465px;stroke-linecap:butt;stroke-linejoin:miter;stroke-opacity:1"
     d="M 381.41313,439.44942 L 398.87825,458.60282 L 396.8661,476.95076 L 384.24401,479.59373 L 366.30512,449.6227 L 381.41313,439.44942 z"
     id="path3546" />
  <path
     id="path4344"
     d="M 743.85237,188.10554 L 758.29825,209.2955 L 756.63394,229.59434 L 746.19386,232.51834 L 731.35612,199.36053 L 743.85237,188.10554 z"
     style="fill:none;fill-rule:evenodd;stroke:#0000ff;stroke-width:0.56970477px;stroke-linecap:butt;stroke-linejoin:miter;stroke-opacity:1" />
  <path
     style="fill:none;fill-rule:evenodd;stroke:#0000ff;stroke-width:0.57226908px;stroke-linecap:butt;stroke-linejoin:miter;stroke-opacity:1"
     d="M 473.28726,241.9506 L 460.39811,263.86455 L 441.99096,269.44353 L 435.35212,260.10557 L 458.55705,233.53714 L 473.28726,241.9506 z"
     id="path4346" />
  <path
     style="fill:none;fill-rule:evenodd;stroke:#0000ff;stroke-width:0.68167585px;stroke-linecap:butt;stroke-linejoin:miter;stroke-opacity:1"
     d="M -72.545979,-76.23672 C -72.545979,-76.23672 -54.849515,-90.61006 -54.994476,-94.863332 C -55.139427,-99.116607 -59.364089,-136.83455 -59.364089,-136.83455 L -68.424564,-138.57072 L -70.557639,-147.25798 L -84.393084,-149.17871"
     id="path3320"
     sodipodi:nodetypes="cscccc" />
  <path
     style="fill:none;fill-rule:evenodd;stroke:#0000ff;stroke-width:0.68167585px;stroke-linecap:butt;stroke-linejoin:miter;stroke-opacity:1"
     d="M -59.542323,-136.55077 L -41.705963,-146.79182 L -40.153654,-162.22646 L -27.537869,-169.38242"
     id="path3326" />
  <path
     style="fill:none;fill-rule:evenodd;stroke:#0000ff;stroke-width:0.68167585px;stroke-linecap:butt;stroke-linejoin:miter;stroke-opacity:1"
     d="M -88.969345,-142.43349 L -84.283248,-149.76743 L -86.977701,-160.22301"
     id="path3328" />
  <path
     sodipodi:nodetypes="ccccccc"
     style="fill:none;fill-rule:evenodd;stroke:#0000ff;stroke-width:0.69640595px;stroke-linecap:butt;stroke-linejoin:miter;stroke-opacity:1"
     d="M -84.872025,-160.52319 L -90.303349,-158.73503 L -93.676181,-160.77753 L -93.217495,-164.15656 L -85.875756,-169.35129 L -81.085564,-165.86115 L -84.872025,-160.52319 z"
     id="path2532" />
  <path
     id="path2534"
     d="M -90.777365,-135.33251 L -96.208689,-133.54436 L -99.58152,-135.58685 L -99.122834,-138.96589 L -91.781099,-144.16063 L -86.990904,-140.67047 L -90.777365,-135.33251 z"
     style="fill:none;fill-rule:evenodd;stroke:#0000ff;stroke-width:0.69640595px;stroke-linecap:butt;stroke-linejoin:miter;stroke-opacity:1"
     sodipodi:nodetypes="ccccccc" />
  <path
     sodipodi:nodetypes="ccccccc"
     style="fill:none;fill-rule:evenodd;stroke:#0000ff;stroke-width:0.69640595px;stroke-linecap:butt;stroke-linejoin:miter;stroke-opacity:1"
     d="M -19.113078,-169.19731 L -24.544399,-167.40914 L -27.917232,-169.45165 L -27.458545,-172.83068 L -20.116809,-178.02541 L -15.326614,-174.53526 L -19.113078,-169.19731 z"
     id="path2536" />
  <path
     sodipodi:nodetypes="ccccccc"
     style="fill:none;fill-rule:evenodd;stroke:#0000ff;stroke-width:0.40501881px;stroke-linecap:butt;stroke-linejoin:miter;stroke-opacity:1"
     d="M -94.467315,-168.21543 L -97.132092,-169.84452 L -97.195293,-172.05679 L -95.340739,-173.14842 L -90.336505,-172.00398 L -90.544235,-168.63764 L -94.467315,-168.21543 z"
     id="path2538" />
  <path
     id="path2540"
     d="M -93.312341,-127.33864 L -95.977118,-128.96773 L -96.040321,-131.18001 L -94.185762,-132.27162 L -89.181532,-131.12719 L -89.389258,-127.76085 L -93.312341,-127.33864 z"
     style="fill:none;fill-rule:evenodd;stroke:#0000ff;stroke-width:0.40501881px;stroke-linecap:butt;stroke-linejoin:miter;stroke-opacity:1"
     sodipodi:nodetypes="ccccccc" />
  <path
     sodipodi:nodetypes="ccccccc"
     style="fill:none;fill-rule:evenodd;stroke:#0000ff;stroke-width:0.38998243px;stroke-linecap:butt;stroke-linejoin:miter;stroke-opacity:1"
     d="M -99.551958,-142.44296 L -102.05836,-144.11774 L -102.15774,-146.32673 L -100.4543,-147.38207 L -95.782668,-146.14801 L -95.913874,-142.79225 L -99.551958,-142.44296 z"
     id="path2542" />
  <path
     id="path2544"
     d="M -25.643724,-178.69429 L -28.150119,-180.36908 L -28.249505,-182.57807 L -26.546055,-183.63341 L -21.874433,-182.39935 L -22.005631,-179.0436 L -25.643724,-178.69429 z"
     style="fill:none;fill-rule:evenodd;stroke:#0000ff;stroke-width:0.38998243px;stroke-linecap:butt;stroke-linejoin:miter;stroke-opacity:1"
     sodipodi:nodetypes="ccccccc" />
  <path
     sodipodi:nodetypes="ccccccc"
     style="fill:none;fill-rule:evenodd;stroke:#0000ff;stroke-width:0.38998243px;stroke-linecap:butt;stroke-linejoin:miter;stroke-opacity:1"
     d="M -21.752579,-160.9107 L -24.258973,-162.58548 L -24.358358,-164.79447 L -22.654914,-165.84983 L -17.983287,-164.61575 L -18.114485,-161.26 L -21.752579,-160.9107 z"
     id="path2546" />
  <path
     id="path2548"
     d="M -11.375021,-173.93499 L -13.881417,-175.60977 L -13.980799,-177.81875 L -12.277353,-178.87411 L -7.6057312,-177.64004 L -7.7369263,-174.28428 L -11.375021,-173.93499 z"
     style="fill:none;fill-rule:evenodd;stroke:#0000ff;stroke-width:0.38998243px;stroke-linecap:butt;stroke-linejoin:miter;stroke-opacity:1"
     sodipodi:nodetypes="ccccccc" />
  <path
     id="path2550"
     d="M -78.79687,-166.9342 L -81.46165,-168.5633 L -81.52485,-170.77557 L -79.670294,-171.86719 L -74.666064,-170.72276 L -74.87379,-167.35641 L -78.79687,-166.9342 z"
     style="fill:none;fill-rule:evenodd;stroke:#0000ff;stroke-width:0.40501881px;stroke-linecap:butt;stroke-linejoin:miter;stroke-opacity:1"
     sodipodi:nodetypes="ccccccc" />
  <path
     id="path2507"
     d="M -75.763992,539.73646 C -75.763992,539.73646 -100.78143,530.45709 -103.36902,530.70003 C -105.95662,530.94296 -117.05973,537.79942 -117.05973,537.79942 L -101.92614,546.06871 L -75.763992,539.73646 z"
     style="fill:none;fill-rule:evenodd;stroke:#0000ff;stroke-width:0.45208579px;stroke-linecap:butt;stroke-linejoin:miter;stroke-opacity:1" />
  <path
     id="path3518"
     d="M -142.44044,537.14827 L -165.53315,541.90159 L -175.44327,567.49545 L -168.83599,585.02621 L -138.81885,567.04678 L -142.44044,537.14827 z"
     style="fill:none;fill-rule:evenodd;stroke:#0000ff;stroke-width:0.73307949px;stroke-linecap:butt;stroke-linejoin:miter;stroke-opacity:1" />
  <path
     sodipodi:nodetypes="cccsc"
     id="path3520"
     d="M -169.9424,543.14398 C -172.65023,542.1062 -190.49546,526.21655 -190.49546,526.21655 L -206.80032,542.35791 C -206.80032,542.35791 -182.92626,573.03225 -180.39878,572.14895 C -177.8713,571.26565 -170.46906,544.48544 -169.9424,543.14398 z"
     style="fill:none;fill-rule:evenodd;stroke:#0000ff;stroke-width:0.45208579px;stroke-linecap:butt;stroke-linejoin:miter;stroke-opacity:1" />
  <path
     sodipodi:nodetypes="cccccccccccccccccccccscccc"
     id="path3522"
     d="M -200.86648,531.67902 L -240.40002,513.97138 L -270.71873,548.62377 L -268.25609,559.94418 L -266.46146,559.29949 L -258.90439,544.88541 L -249.05163,554.59436 L -246.54308,552.49872 L -251.06592,534.14268 L -238.8911,547.94748 L -237.27285,547.25273 L -233.85684,529.80093 L -210.02917,574.90549 L -229.89423,566.62741 L -221.02031,582.19852 L -235.5321,571.33784 L -239.30709,574.41447 C -240.55793,580.62673 -242.77046,581.88588 -242.13069,584.39057 L -253.57272,581.22793 L -255.16199,582.30307 L -245.14392,589.18872 L -205.21448,586.20469 C -201.51088,585.92792 -186.46562,574.12466 -186.46562,574.12466 L -196.2526,557.9826 L -210.46744,542.50605 L -200.86648,531.67902 z"
     style="fill:none;fill-rule:evenodd;stroke:#0000ff;stroke-width:0.49166244px;stroke-linecap:butt;stroke-linejoin:miter;stroke-opacity:1" />
  <path
     sodipodi:nodetypes="cccccc"
     id="path3524"
     d="M -234.7729,518.90792 L -231.148,522.30709 L -235.99545,528.19118 L -244.24731,528.20857 C -242.48542,525.13451 -240.2886,520.32072 -239.17931,519.85704 L -234.7729,518.90792 z"
     style="fill:none;fill-rule:evenodd;stroke:#0000ff;stroke-width:0.48687905px;stroke-linecap:butt;stroke-linejoin:miter;stroke-opacity:1" />
  <path
     id="path3526"
     d="M -82.760823,527.53781 L -65.082903,514.25002 L -48.008624,522.33711 C -48.008624,522.33711 -66.739853,538.30781 -69.387582,537.91038 C -72.035302,537.51296 -83.994493,528.29964 -82.760823,527.53781 z"
     style="fill:none;fill-rule:evenodd;stroke:#0000ff;stroke-width:0.45208579px;stroke-linecap:butt;stroke-linejoin:miter;stroke-opacity:1" />
  <path
     id="path3528"
     d="M -34.272363,501.94977 C -36.739723,503.47342 -52.837663,512.73684 -52.837663,512.73684 L -43.526183,521.55273 L -25.261482,507.56384 L -34.272363,501.94977 z"
     style="fill:none;fill-rule:evenodd;stroke:#0000ff;stroke-width:0.45208579px;stroke-linecap:butt;stroke-linejoin:miter;stroke-opacity:1" />
  <path
     style="fill:none;fill-rule:evenodd;stroke:#0000ff;stroke-width:0.45208579px;stroke-linecap:butt;stroke-linejoin:miter;stroke-opacity:1"
     d="M -137.69424,567.49143 L -155.22167,582.48598 L -163.25885,601.16383 L -158.65723,606.69274 L -135.61593,581.06814 L -137.69424,567.49143 z"
     id="path3544" />
  <path
     id="path2516"
     d="M -127.38488,521.97741 L -136.47812,543.17554 L -135.43049,563.48221 L -128.85878,566.40733 L -119.51887,533.23674 L -127.38488,521.97741 z"
     style="fill:none;fill-rule:evenodd;stroke:#0000ff;stroke-width:0.45208579px;stroke-linecap:butt;stroke-linejoin:miter;stroke-opacity:1" />
  <path
     style="fill:none;fill-rule:evenodd;stroke:#0000ff;stroke-width:0.35857609px;stroke-linecap:butt;stroke-linejoin:miter;stroke-opacity:1"
     d="M -163.5787,596.44324 L -182.37075,595.54698 L -197.60695,601.7454 L -197.982,607.28157 L -169.96199,605.14841 L -163.5787,596.44324 z"
     id="path3554" />
  <path
     inkscape:transform-center-y="2.64788"
     inkscape:transform-center-x="1.1323843"
     id="path3558"
     d="M -159.67228,607.07562 L -159.17004,620.82131 L -153.73542,629.55943 L -149.69331,627.90365 L -152.96096,608.61378 L -159.67228,607.07562 z"
     style="fill:none;fill-rule:evenodd;stroke:#0000ff;stroke-width:0.26357368px;stroke-linecap:butt;stroke-linejoin:miter;stroke-opacity:1" />
  <path
     inkscape:transform-center-y="-2.54186"
     inkscape:transform-center-x="-11.355213"
     style="fill:none;fill-rule:evenodd;stroke:#0000ff;stroke-width:0.26357368px;stroke-linecap:butt;stroke-linejoin:miter;stroke-opacity:1"
     d="M -165.16362,601.77986 L -172.89044,613.15934 L -173.67816,623.41943 L -169.4397,624.47571 L -160.66263,606.9903 L -165.16362,601.77986 z"
     id="path3560" />
  <path
     style="fill:none;fill-rule:evenodd;stroke:#0000ff;stroke-width:0.52683836px;stroke-linecap:butt;stroke-linejoin:miter;stroke-opacity:1"
     d="M -212.19641,462.54 L -221.24957,491.45539 L -220.20656,519.15478 L -213.66382,523.1448 L -204.36508,477.89833 L -212.19641,462.54 z"
     id="path4405" />
  <path
     id="path4407"
     d="M -242.31437,459.30763 L -243.38702,490.35497 L -234.42969,515.43191 L -226.56965,515.9749 L -229.8937,469.72946 L -242.31437,459.30763 z"
     style="fill:none;fill-rule:evenodd;stroke:#0000ff;stroke-width:0.54894787px;stroke-linecap:butt;stroke-linejoin:miter;stroke-opacity:1" />
</svg>
