<?xml version="1.0" encoding="UTF-8" standalone="no"?>
<!-- Created with Inkscape (http://www.inkscape.org/) -->
<svg
   xmlns:dc="http://purl.org/dc/elements/1.1/"
   xmlns:cc="http://creativecommons.org/ns#"
   xmlns:rdf="http://www.w3.org/1999/02/22-rdf-syntax-ns#"
   xmlns:svg="http://www.w3.org/2000/svg"
   xmlns="http://www.w3.org/2000/svg"
   xmlns:sodipodi="http://sodipodi.sourceforge.net/DTD/sodipodi-0.dtd"
   xmlns:inkscape="http://www.inkscape.org/namespaces/inkscape"
   version="1.0"
   width="744.09448"
   height="1052.3622"
   id="svg2"
   sodipodi:version="0.32"
   inkscape:version="0.46"
   sodipodi:docname="level3.svg"
   inkscape:output_extension="org.inkscape.output.svg.inkscape">
  <metadata
     id="metadata3463">
    <rdf:RDF>
      <cc:Work
         rdf:about="">
        <dc:format>image/svg+xml</dc:format>
        <dc:type
           rdf:resource="http://purl.org/dc/dcmitype/StillImage" />
      </cc:Work>
    </rdf:RDF>
  </metadata>
  <sodipodi:namedview
     inkscape:window-height="675"
     inkscape:window-width="973"
     inkscape:pageshadow="2"
     inkscape:pageopacity="0.0"
     guidetolerance="10.0"
     gridtolerance="10.0"
     objecttolerance="10.0"
     borderopacity="1.0"
     bordercolor="#666666"
     pagecolor="#ffffff"
     id="base"
     showgrid="false"
     inkscape:zoom="0.91381992"
     inkscape:cx="-161.65373"
     inkscape:cy="129.92142"
     inkscape:window-x="41"
     inkscape:window-y="25"
     inkscape:current-layer="svg2" />
  <defs
     id="defs4">
    <inkscape:perspective
       sodipodi:type="inkscape:persp3d"
       inkscape:vp_x="0 : 526.18109 : 1"
       inkscape:vp_y="0 : 1000 : 0"
       inkscape:vp_z="744.09448 : 526.18109 : 1"
       inkscape:persp3d-origin="372.04724 : 350.78739 : 1"
       id="perspective3465" />
  </defs>
  <path
     style="fill:#439f49;fill-opacity:1;fill-rule:evenodd;stroke:#0000ff;stroke-width:1.38185978px;stroke-linecap:butt;stroke-linejoin:miter;stroke-opacity:1"
     d="M 42.1875,-113.4375 L -27.6875,-102 L -117.96875,-78 L -270.90625,-78.875 L -356.125,-112.28125 L -897.84375,-80.9375 L -754.75,1273.9062 L 1308.625,1486.4375 L 1399.3438,-74.75 C 1237.4529,-66.910883 1077.9297,-48.210334 917.21875,-30.875 C 911.8174,-30.875001 775.21875,-35.125 775.21875,-35.125 L 666.78125,3.53125 L 524.875,10 L 394.59375,-45.40625 L 287.65625,-44.40625 L 228.59375,-72.25 L 143.96875,-81.8125 L 42.1875,-113.4375 z M 54.15625,-100.59375 L 216.65625,-9.28125 L 484.40625,54.15625 L 656.1875,71.96875 L 679.375,107.5625 L 652.3125,211.25 C 652.31249,211.25 530.83629,223.62359 530.0625,226.71875 C 529.28867,229.81391 461.96875,303.34375 461.96875,303.34375 L 296.375,383.8125 L 322.65625,408.5625 L 549.40625,466.59375 L 560.21875,464.28125 L 585,402.375 L 600.46875,393.875 L 699.5,403.9375 L 717.3125,421.71875 L 708.03125,603.5625 L 624.4375,642.25 L 573.375,753.6875 L 341.25,860.46875 L 81.25,909.21875 L -191.125,910.75 L -205.0625,907.65625 L -218.21875,889.09375 L -214.34375,675.53125 L -195,660.0625 L -99.03125,663.15625 C -99.031249,663.15628 -77.375,683.25604 -77.375,687.125 C -77.374999,690.99394 -78.15625,762.96875 -78.15625,762.96875 C -78.156253,762.96876 -75.845169,770.6875 -72.75,770.6875 C -69.65483,770.68752 5.40625,767.59375 5.40625,767.59375 L 193.4375,735.875 L 390.75,650 L 401.59375,613.625 L 396.96875,605.125 L 184.9375,545.53125 L 24.75,521.53125 L -123.03125,511.46875 L -135.40625,509.15625 L -149.34375,491.375 L -141.59375,390 L -58.03125,359.8125 L 65,340.46875 L 181.84375,294.03125 L 281.65625,230.59375 L 276.25,196.5625 L 265.40625,188.03125 L 89,147.8125 L 75.84375,142.375 L -47.96875,15.46875 L -47.96875,-13.15625 C -42.552203,-17.799003 27.075996,-95.944958 31.71875,-96.71875 C 36.361503,-97.49254 54.15625,-100.59375 54.15625,-100.59375 z"
     id="path3924" />
  <rect
     width="20.237734"
     height="20.237734"
     x="46.554359"
     y="-42.244061"
     id="rect3171"
     style="opacity:1;fill:#ff0000;fill-opacity:1;fill-rule:evenodd;stroke:none;stroke-width:1px;stroke-linecap:butt;stroke-linejoin:miter;marker:none;marker-start:none;marker-mid:none;marker-end:none;stroke-miterlimit:4;stroke-dasharray:none;stroke-dashoffset:0;stroke-opacity:1;visibility:visible;display:inline;overflow:visible;enable-background:accumulate" />
  <rect
     width="20.237734"
     height="20.237734"
     x="-96.852409"
     y="428.72696"
     id="rect3173"
     style="opacity:1;fill:#0000ff;fill-opacity:1;fill-rule:evenodd;stroke:none;stroke-width:1px;stroke-linecap:butt;stroke-linejoin:miter;marker:none;marker-start:none;marker-mid:none;marker-end:none;stroke-miterlimit:4;stroke-dasharray:none;stroke-dashoffset:0;stroke-opacity:1;visibility:visible;display:inline;overflow:visible;enable-background:accumulate" />
  <rect
     width="20.237734"
     height="20.237734"
     x="631.01935"
     y="442.10666"
     id="rect3283"
     style="opacity:1;fill:#0000ff;fill-opacity:1;fill-rule:evenodd;stroke:none;stroke-width:1px;stroke-linecap:butt;stroke-linejoin:miter;marker:none;marker-start:none;marker-mid:none;marker-end:none;stroke-miterlimit:4;stroke-dasharray:none;stroke-dashoffset:0;stroke-opacity:1;visibility:visible;display:inline;overflow:visible;enable-background:accumulate" />
  <rect
     width="20.237734"
     height="20.237734"
     x="589.10034"
     y="153.91985"
     id="rect3287"
     style="opacity:1;fill:#0000ff;fill-opacity:1;fill-rule:evenodd;stroke:none;stroke-width:1px;stroke-linecap:butt;stroke-linejoin:miter;marker:none;marker-start:none;marker-mid:none;marker-end:none;stroke-miterlimit:4;stroke-dasharray:none;stroke-dashoffset:0;stroke-opacity:1;visibility:visible;display:inline;overflow:visible;enable-background:accumulate" />
  <rect
     width="20.237734"
     height="20.237734"
     x="-160.69072"
     y="741.65051"
     id="rect3291"
     style="opacity:1;fill:#0000ff;fill-opacity:1;fill-rule:evenodd;stroke:none;stroke-width:1px;stroke-linecap:butt;stroke-linejoin:miter;marker:none;marker-start:none;marker-mid:none;marker-end:none;stroke-miterlimit:4;stroke-dasharray:none;stroke-dashoffset:0;stroke-opacity:1;visibility:visible;display:inline;overflow:visible;enable-background:accumulate" />
  <path
     d="M -94.991255,777.0951 L -85.395337,784.98344 L 4.2605756,781.81563 L 195.98648,749.86131 L 406.88497,660.38922 L 415.98883,610.21776 L 409.22022,596.22942 L 183.20475,531.50681 L 19.17259,507.0085 L -125.30838,497.97844 L -133.43434,488.9105 L -127.81727,400.49411 L -54.322339,373.86551 L 68.16921,352.56263 L 184.2699,304.63116 L 296.11001,236.46195 L 288.19434,188.76378 L 277.58881,178.30812 L 89.472088,135.27328 L -34.298065,11.503122 L -34.945603,-8.2947976 L 36.03991,-84.431051 L 53.868787,-88.884204 L 213.02878,4.2605756 L 481.44505,66.038922 L 650.55599,86.171178 L 662.57784,104.30357 L 639.08635,198.11677 L 521.92052,213.02878 L 451.62102,291.84943 L 276.87079,377.57749 L 277.81452,388.30509 L 317.41289,421.79699 C 395.96557,441.36804 481.69073,460.93909 553.07093,480.51014 L 564.93908,479.01971 L 592.79168,413.00125 L 602.41404,406.98893 L 694.94092,416.33105 L 704.50132,425.80804 L 696.60412,594.3503 L 615.65318,632.69548 L 564.52627,743.47045 L 334.45519,847.85455 L 74.560074,896.85117 C -18.462494,896.85117 228.42726,896.30402 -194.65887,896.30402 L -201.72086,888.76388 L -201.45879,686.66282 L -189.83113,677.63647 L -102.85731,679.36924 L -93.052002,692.12733 L -95.105497,776.98537"
     id="path3301"
     style="fill:none;fill-rule:evenodd;stroke:#000000;stroke-width:1px;stroke-linecap:butt;stroke-linejoin:miter;stroke-opacity:1"
     sodipodi:nodetypes="ccccccccccccccccccccccccccccccccccccccccccccccccccc" />
  <path
     style="fill:none;fill-rule:evenodd;stroke:#0000ff;stroke-width:0.65279067px;stroke-linecap:butt;stroke-linejoin:miter;stroke-opacity:1"
     d="M 663.33796,3.3952958 C 663.33796,3.3952958 644.39498,-6.2440282 643.57536,-10.405756 C 642.75573,-14.567488 638.10115,-52.188728 638.10115,-52.188728 L 645.77148,-56.077507 L 645.73106,-65.024728 L 657.60663,-70.254301"
     id="path3320"
     sodipodi:nodetypes="cscccc" />
  <path
     style="fill:none;fill-rule:evenodd;stroke:#0000ff;stroke-width:0.65279067px;stroke-linecap:butt;stroke-linejoin:miter;stroke-opacity:1"
     d="M 638.32294,-51.956767 L 620.1771,-57.55298 L 615.3545,-72.149771 L 602.53936,-76.023009"
     id="path3326" />
  <path
     style="fill:none;fill-rule:evenodd;stroke:#0000ff;stroke-width:0.65279067px;stroke-linecap:butt;stroke-linejoin:miter;stroke-opacity:1"
     d="M 663.18059,-64.823559 L 657.37766,-70.798749 L 657.44212,-81.598142"
     id="path3328" />
  <path
     sodipodi:nodetypes="ccccccc"
     style="fill:none;fill-rule:evenodd;stroke:#0000ff;stroke-width:0.66689658px;stroke-linecap:butt;stroke-linejoin:miter;stroke-opacity:1"
     d="M 655.50259,-81.37707 L 660.73147,-80.963636 L 663.27544,-83.765836 L 662.11396,-86.932527 L 654.42643,-90.186172 L 650.94484,-85.634646 L 655.50259,-81.37707 z"
     id="path2532" />
  <path
     id="path2534"
     d="M 666.37208,-58.374193 L 671.60096,-57.960759 L 674.14493,-60.762959 L 672.98345,-63.92965 L 665.29592,-67.183295 L 661.81433,-62.631769 L 666.37208,-58.374193 z"
     style="fill:none;fill-rule:evenodd;stroke:#0000ff;stroke-width:0.66689658px;stroke-linecap:butt;stroke-linejoin:miter;stroke-opacity:1"
     sodipodi:nodetypes="ccccccc" />
  <path
     sodipodi:nodetypes="ccccccc"
     style="fill:none;fill-rule:evenodd;stroke:#0000ff;stroke-width:0.66689658px;stroke-linecap:butt;stroke-linejoin:miter;stroke-opacity:1"
     d="M 595.08844,-73.793704 L 600.31732,-73.38027 L 602.86129,-76.18247 L 601.69981,-79.349161 L 594.01228,-82.602806 L 590.53069,-78.05128 L 595.08844,-73.793704 z"
     id="path2536" />
  <path
     sodipodi:nodetypes="ccccccc"
     style="fill:none;fill-rule:evenodd;stroke:#0000ff;stroke-width:0.38785663px;stroke-linecap:butt;stroke-linejoin:miter;stroke-opacity:1"
     d="M 662.32025,-91.174457 L 664.32674,-93.403309 L 663.88958,-95.564998 L 661.99687,-96.172865 L 657.80181,-93.84505 L 658.73728,-90.629615 L 662.32025,-91.174457 z"
     id="path2538" />
  <path
     id="path2540"
     d="M 670.40918,-51.235396 L 672.41567,-53.464247 L 671.97851,-55.625936 L 670.0858,-56.233803 L 665.89074,-53.905988 L 666.82621,-50.690554 L 670.40918,-51.235396 z"
     style="fill:none;fill-rule:evenodd;stroke:#0000ff;stroke-width:0.38785663px;stroke-linecap:butt;stroke-linejoin:miter;stroke-opacity:1"
     sodipodi:nodetypes="ccccccc" />
  <path
     sodipodi:nodetypes="ccccccc"
     style="fill:none;fill-rule:evenodd;stroke:#0000ff;stroke-width:0.3734574px;stroke-linecap:butt;stroke-linejoin:miter;stroke-opacity:1"
     d="M 672.58964,-67.40746 L 674.4451,-69.6421 L 674.04084,-71.809405 L 672.29061,-72.418851 L 668.41132,-70.084989 L 669.27638,-66.861202 L 672.58964,-67.40746 z"
     id="path2542" />
  <path
     id="path2544"
     d="M 598.77822,-84.596423 L 600.63367,-86.831063 L 600.22942,-88.998368 L 598.47918,-89.607814 L 594.5999,-87.273952 L 595.46495,-84.050165 L 598.77822,-84.596423 z"
     style="fill:none;fill-rule:evenodd;stroke:#0000ff;stroke-width:0.3734574px;stroke-linecap:butt;stroke-linejoin:miter;stroke-opacity:1"
     sodipodi:nodetypes="ccccccc" />
  <path
     sodipodi:nodetypes="ccccccc"
     style="fill:none;fill-rule:evenodd;stroke:#0000ff;stroke-width:0.3734574px;stroke-linecap:butt;stroke-linejoin:miter;stroke-opacity:1"
     d="M 599.28378,-66.396344 L 601.13923,-68.630984 L 600.73498,-70.798289 L 598.98474,-71.407735 L 595.10546,-69.073873 L 595.97051,-65.850086 L 599.28378,-66.396344 z"
     id="path2546" />
  <path
     id="path2548"
     d="M 587.15039,-76.507499 L 589.00584,-78.742139 L 588.60159,-80.909444 L 586.85135,-81.51889 L 582.97207,-79.185028 L 583.83712,-75.961241 L 587.15039,-76.507499 z"
     style="fill:none;fill-rule:evenodd;stroke:#0000ff;stroke-width:0.3734574px;stroke-linecap:butt;stroke-linejoin:miter;stroke-opacity:1"
     sodipodi:nodetypes="ccccccc" />
  <path
     id="path2550"
     d="M 648.67019,-86.11888 L 650.67668,-88.347731 L 650.23952,-90.50942 L 648.34681,-91.117287 L 644.15175,-88.789472 L 645.08722,-85.574038 L 648.67019,-86.11888 z"
     style="fill:none;fill-rule:evenodd;stroke:#0000ff;stroke-width:0.38785663px;stroke-linecap:butt;stroke-linejoin:miter;stroke-opacity:1"
     sodipodi:nodetypes="ccccccc" />
  <path
     id="path3997"
     d="M -186.79316,-77.793459 L -193.99911,-96.131251 L -180.28026,-109.32014 L -185.46352,-122.22075"
     style="fill:none;fill-rule:evenodd;stroke:#0000ff;stroke-width:0.78797853px;stroke-linecap:butt;stroke-linejoin:miter;stroke-opacity:1" />
  <path
     id="path3999"
     d="M -185.57357,-121.88874 L -181.01465,-124.48264 L -180.483,-128.22983 L -183.2222,-130.19803 L -191.41038,-128.5738 L -191.73563,-122.85261 L -185.57357,-121.88874 z"
     style="fill:none;fill-rule:evenodd;stroke:#0000ff;stroke-width:0.66689658px;stroke-linecap:butt;stroke-linejoin:miter;stroke-opacity:1"
     sodipodi:nodetypes="ccccccc" />
  <path
     style="fill:none;fill-rule:evenodd;stroke:#0000ff;stroke-width:0.78797853px;stroke-linecap:butt;stroke-linejoin:miter;stroke-opacity:1"
     d="M -189.49168,-84.600779 L -176.77533,-102.08365 L -154.96816,-104.8077 L -146.0985,-117.16622"
     id="path4005"
     inkscape:transform-center-x="35.093783"
     inkscape:transform-center-y="-0.082351095" />
  <path
     style="fill:none;fill-rule:evenodd;stroke:#0000ff;stroke-width:1px;stroke-linecap:butt;stroke-linejoin:miter;stroke-opacity:1"
     d="M -57.669935,-155.78516 L -55.608994,-152.41318"
     id="path4074" />
  <path
     style="fill:none;fill-rule:evenodd;stroke:#0000ff;stroke-width:0.85955364px;stroke-linecap:butt;stroke-linejoin:miter;stroke-opacity:1"
     d="M -58.280819,-153.09898 L -54.948114,-155.36045"
     id="path4076" />
  <path
     style="fill:none;fill-rule:evenodd;stroke:#0000ff;stroke-width:1px;stroke-linecap:butt;stroke-linejoin:miter;stroke-opacity:1"
     d="M -259.05876,-129.40784 L -256.99782,-126.03587"
     id="path4090" />
  <path
     style="fill:none;fill-rule:evenodd;stroke:#0000ff;stroke-width:0.85955364px;stroke-linecap:butt;stroke-linejoin:miter;stroke-opacity:1"
     d="M -259.66965,-126.72167 L -256.33694,-128.98313"
     id="path4092" />
  <path
     style="fill:none;fill-rule:evenodd;stroke:#000000;stroke-width:1px;stroke-linecap:butt;stroke-linejoin:miter;stroke-opacity:1"
     d="M -134.42639,-88.736866 L -132.36546,-85.364899"
     id="path4130" />
  <path
     style="fill:none;fill-rule:evenodd;stroke:#000000;stroke-width:0.85955364px;stroke-linecap:butt;stroke-linejoin:miter;stroke-opacity:1"
     d="M -135.03728,-86.050696 L -131.70458,-88.312163"
     id="path4132" />
  <path
     sodipodi:nodetypes="ccccccc"
     style="fill:none;fill-rule:evenodd;stroke:#0000ff;stroke-width:0.66689658px;stroke-linecap:butt;stroke-linejoin:miter;stroke-opacity:1"
     d="M -143.74737,-116.97317 L -139.18845,-119.56707 L -138.65681,-123.31427 L -141.396,-125.28247 L -149.58418,-123.65824 L -149.90943,-117.93704 L -143.74737,-116.97317 z"
     id="path2522" />
  <path
     id="path2524"
     d="M -130.71342,-121.16167 L -130.30459,-124.13264 L -131.88012,-125.67592 L -133.78761,-125.11616 L -135.95186,-120.83442 L -133.37231,-118.69899 L -130.71342,-121.16167 z"
     style="fill:none;fill-rule:evenodd;stroke:#0000ff;stroke-width:0.38785663px;stroke-linecap:butt;stroke-linejoin:miter;stroke-opacity:1"
     sodipodi:nodetypes="ccccccc" />
  <path
     sodipodi:nodetypes="ccccccc"
     style="fill:none;fill-rule:evenodd;stroke:#0000ff;stroke-width:0.38785663px;stroke-linecap:butt;stroke-linejoin:miter;stroke-opacity:1"
     d="M -149.5535,-127.31725 L -149.14468,-130.28821 L -150.7202,-131.83149 L -152.62769,-131.27173 L -154.79194,-126.99 L -152.2124,-124.85456 L -149.5535,-127.31725 z"
     id="path2526" />
  <path
     id="path2528"
     d="M -193.39669,-130.25318 L -192.98786,-133.22415 L -194.56339,-134.76743 L -196.47088,-134.20767 L -198.63513,-129.92593 L -196.05558,-127.79049 L -193.39669,-130.25318 z"
     style="fill:none;fill-rule:evenodd;stroke:#0000ff;stroke-width:0.38785663px;stroke-linecap:butt;stroke-linejoin:miter;stroke-opacity:1"
     sodipodi:nodetypes="ccccccc" />
  <path
     sodipodi:nodetypes="ccccccc"
     style="fill:none;fill-rule:evenodd;stroke:#0000ff;stroke-width:0.38785663px;stroke-linecap:butt;stroke-linejoin:miter;stroke-opacity:1"
     d="M -173.41363,-130.06637 L -173.00481,-133.03734 L -174.58034,-134.58062 L -176.48782,-134.02086 L -178.65208,-129.73913 L -176.07253,-127.60369 L -173.41363,-130.06637 z"
     id="path2530" />
  <path
     id="path3833"
     d="M 148.99925,-128.13194 L 151.06018,-124.75997"
     style="fill:none;fill-rule:evenodd;stroke:#000000;stroke-width:1px;stroke-linecap:butt;stroke-linejoin:miter;stroke-opacity:1" />
  <path
     id="path3835"
     d="M 148.38836,-125.44577 L 151.72106,-127.70723"
     style="fill:none;fill-rule:evenodd;stroke:#000000;stroke-width:0.85955364px;stroke-linecap:butt;stroke-linejoin:miter;stroke-opacity:1" />
  <path
     id="path3837"
     d="M 361.41359,-103.14446 L 363.47453,-99.77249"
     style="fill:none;fill-rule:evenodd;stroke:#0000ff;stroke-width:1px;stroke-linecap:butt;stroke-linejoin:miter;stroke-opacity:1" />
  <path
     id="path3839"
     d="M 360.8027,-100.45829 L 364.13541,-102.71975"
     style="fill:none;fill-rule:evenodd;stroke:#0000ff;stroke-width:0.85955364px;stroke-linecap:butt;stroke-linejoin:miter;stroke-opacity:1" />
  <path
     style="fill:none;fill-rule:evenodd;stroke:#0000ff;stroke-width:1px;stroke-linecap:butt;stroke-linejoin:miter;stroke-opacity:1"
     d="M 523.3711,-42.957547 L 525.43204,-39.585577"
     id="path3841" />
  <path
     style="fill:none;fill-rule:evenodd;stroke:#0000ff;stroke-width:0.85955364px;stroke-linecap:butt;stroke-linejoin:miter;stroke-opacity:1"
     d="M 522.76021,-40.271377 L 526.09292,-42.532837"
     id="path3843" />
  <path
     id="path3845"
     d="M 714.87491,-120.65338 L 716.93585,-117.28141"
     style="fill:none;fill-rule:evenodd;stroke:#0000ff;stroke-width:1px;stroke-linecap:butt;stroke-linejoin:miter;stroke-opacity:1" />
  <path
     id="path3847"
     d="M 714.26402,-117.96721 L 717.59673,-120.22867"
     style="fill:none;fill-rule:evenodd;stroke:#0000ff;stroke-width:0.85955364px;stroke-linecap:butt;stroke-linejoin:miter;stroke-opacity:1" />
  <path
     style="fill:none;fill-rule:evenodd;stroke:#0000ff;stroke-width:1px;stroke-linecap:butt;stroke-linejoin:miter;stroke-opacity:1"
     d="M 827.58858,-70.315235 L 829.64952,-66.943265"
     id="path3849" />
  <path
     style="fill:none;fill-rule:evenodd;stroke:#0000ff;stroke-width:0.85955364px;stroke-linecap:butt;stroke-linejoin:miter;stroke-opacity:1"
     d="M 826.97769,-67.629065 L 830.3104,-69.890525"
     id="path3851" />
  <path
     id="path3853"
     d="M 24.403128,-215.97207 L 26.464069,-212.60009"
     style="fill:none;fill-rule:evenodd;stroke:#0000ff;stroke-width:1px;stroke-linecap:butt;stroke-linejoin:miter;stroke-opacity:1" />
  <path
     id="path3855"
     d="M 23.792244,-213.28589 L 27.124949,-215.54736"
     style="fill:none;fill-rule:evenodd;stroke:#0000ff;stroke-width:0.85955364px;stroke-linecap:butt;stroke-linejoin:miter;stroke-opacity:1" />
  <path
     id="path3857"
     d="M 245.45324,-178.76562 L 247.51418,-175.39364"
     style="fill:none;fill-rule:evenodd;stroke:#0000ff;stroke-width:1px;stroke-linecap:butt;stroke-linejoin:miter;stroke-opacity:1" />
  <path
     id="path3859"
     d="M 244.84236,-176.07944 L 248.17506,-178.34091"
     style="fill:none;fill-rule:evenodd;stroke:#0000ff;stroke-width:0.85955364px;stroke-linecap:butt;stroke-linejoin:miter;stroke-opacity:1" />
  <path
     id="path3552"
     d="M 633.85382,281.05288 L 633.75082,257.98695 L 642.63741,239.69797 L 649.82955,239.56836 L 645.48902,273.75435 L 633.85382,281.05288 z"
     style="fill:none;fill-rule:evenodd;stroke:#0000ff;stroke-width:0.45208579px;stroke-linecap:butt;stroke-linejoin:miter;stroke-opacity:1" />
  <path
     id="path3566"
     d="M -139.90977,317.7172 L -121.35908,304.00882 L -101.3526,300.37578 L -96.999544,306.10244 L -127.14767,322.79414 L -139.90977,317.7172 z"
     style="fill:none;fill-rule:evenodd;stroke:#0000ff;stroke-width:0.45208579px;stroke-linecap:butt;stroke-linejoin:miter;stroke-opacity:1" />
  <path
     id="path3570"
     d="M 763.68753,165.15436 L 780.98235,139.31048 L 804.80742,127.43179 L 813.01465,134.19431 L 782.3158,168.18234 L 763.68753,165.15436 z"
     style="fill:none;fill-rule:evenodd;stroke:#0000ff;stroke-width:0.63669038px;stroke-linecap:butt;stroke-linejoin:miter;stroke-opacity:1" />
  <path
     style="fill:none;fill-rule:evenodd;stroke:#0000ff;stroke-width:0.58097482px;stroke-linecap:butt;stroke-linejoin:miter;stroke-opacity:1"
     d="M 728.64931,642.65322 L 722.16133,620.21053 L 732.77896,604.28284 L 745.3839,605.6542 L 747.10283,637.98106 L 728.64931,642.65322 z"
     id="path3572" />
  <path
     style="fill:none;fill-rule:evenodd;stroke:#0000ff;stroke-width:0.63669038px;stroke-linecap:butt;stroke-linejoin:miter;stroke-opacity:1"
     d="M 427.86169,386.45894 L 445.15651,360.61506 L 468.98158,348.73637 L 477.18881,355.49889 L 446.48996,389.48692 L 427.86169,386.45894 z"
     id="path4377" />
  <path
     id="path4379"
     d="M 82.262988,236.72179 L 80.975224,205.65157 L 93.200369,182.0024 L 103.81687,182.61893 L 99.088985,228.17387 L 82.262988,236.72179 z"
     style="fill:none;fill-rule:evenodd;stroke:#0000ff;stroke-width:0.63669038px;stroke-linecap:butt;stroke-linejoin:miter;stroke-opacity:1" />
  <path
     style="fill:none;fill-rule:evenodd;stroke:#0000ff;stroke-width:0.63669038px;stroke-linecap:butt;stroke-linejoin:miter;stroke-opacity:1"
     d="M -226.65541,479.75312 L -246.41102,455.73785 L -250.91128,429.49886 L -242.06856,423.59152 L -218.38204,462.79044 L -226.65541,479.75312 z"
     id="path4381" />
  <path
     id="path4383"
     d="M 652.91205,756.39172 L 680.30958,771.10202 L 694.44007,793.66452 L 688.50429,802.48818 L 651.70261,775.22569 L 652.91205,756.39172 z"
     style="fill:none;fill-rule:evenodd;stroke:#0000ff;stroke-width:0.63669038px;stroke-linecap:butt;stroke-linejoin:miter;stroke-opacity:1" />
  <path
     style="fill:none;fill-rule:evenodd;stroke:#0000ff;stroke-width:0.63669038px;stroke-linecap:butt;stroke-linejoin:miter;stroke-opacity:1"
     d="M 436.14977,871.71888 L 461.92928,854.32824 L 488.47667,852.33505 L 493.51935,861.69783 L 452.25198,881.56265 L 436.14977,871.71888 z"
     id="path4385" />
  <path
     style="fill:none;fill-rule:evenodd;stroke:#0000ff;stroke-width:0.45208579px;stroke-linecap:butt;stroke-linejoin:miter;stroke-opacity:1"
     d="M -21.079958,641.74132 C -21.079958,641.74132 3.9374821,632.46195 6.5250721,632.70489 C 9.1126721,632.94782 20.215776,639.80428 20.215776,639.80428 L 5.0821921,648.07357 L -21.079958,641.74132 z"
     id="path3516" />
  <path
     style="fill:none;fill-rule:evenodd;stroke:#0000ff;stroke-width:0.73307949px;stroke-linecap:butt;stroke-linejoin:miter;stroke-opacity:1"
     d="M 45.596492,639.15313 L 68.6892,643.90645 L 78.59932,669.50031 L 71.99204,687.03107 L 41.974901,669.05164 L 45.596492,639.15313 z"
     id="path3518" />
  <path
     style="fill:none;fill-rule:evenodd;stroke:#0000ff;stroke-width:0.45208579px;stroke-linecap:butt;stroke-linejoin:miter;stroke-opacity:1"
     d="M 73.09845,645.14884 C 75.80628,644.11106 93.65151,628.22141 93.65151,628.22141 L 109.95637,644.36277 C 109.95637,644.36277 86.08231,675.03711 83.55483,674.15381 C 81.02735,673.27051 73.62511,646.4903 73.09845,645.14884 z"
     id="path3520"
     sodipodi:nodetypes="cccsc" />
  <path
     style="fill:none;fill-rule:evenodd;stroke:#0000ff;stroke-width:0.49166244px;stroke-linecap:butt;stroke-linejoin:miter;stroke-opacity:1"
     d="M 104.02253,633.68388 L 143.55607,615.97624 L 173.87478,650.62863 L 171.41214,661.94904 L 169.61751,661.30435 L 162.06044,646.89027 L 152.20768,656.59922 L 149.69913,654.50358 L 154.22197,636.14754 L 142.04715,649.95234 L 140.4289,649.25759 L 137.01289,631.80579 L 113.18522,676.91035 L 133.05028,668.63227 L 124.17636,684.20338 L 138.68815,673.3427 L 142.46314,676.41933 C 143.71398,682.63159 145.92651,683.89074 145.28674,686.39543 L 156.72877,683.23279 L 158.31804,684.30793 L 148.29997,691.19358 L 108.37053,688.20955 C 104.66693,687.93278 89.62167,676.12952 89.62167,676.12952 L 99.40865,659.98746 L 113.62349,644.51091 L 104.02253,633.68388 z"
     id="path3522"
     sodipodi:nodetypes="cccccccccccccccccccccscccc" />
  <path
     style="fill:none;fill-rule:evenodd;stroke:#0000ff;stroke-width:0.48687905px;stroke-linecap:butt;stroke-linejoin:miter;stroke-opacity:1"
     d="M 137.92895,620.91278 L 134.30405,624.31195 L 139.1515,630.19604 L 147.40336,630.21343 C 145.64147,627.13937 143.44465,622.32558 142.33536,621.8619 L 137.92895,620.91278 z"
     id="path3524"
     sodipodi:nodetypes="cccccc" />
  <path
     style="fill:none;fill-rule:evenodd;stroke:#0000ff;stroke-width:0.45208579px;stroke-linecap:butt;stroke-linejoin:miter;stroke-opacity:1"
     d="M -14.083127,629.54267 L -31.761047,616.25488 L -48.835326,624.34197 C -48.835326,624.34197 -30.104097,640.31267 -27.456368,639.91524 C -24.808648,639.51782 -12.849457,630.3045 -14.083127,629.54267 z"
     id="path3526" />
  <path
     style="fill:none;fill-rule:evenodd;stroke:#0000ff;stroke-width:0.45208579px;stroke-linecap:butt;stroke-linejoin:miter;stroke-opacity:1"
     d="M -62.571587,603.95463 C -60.104227,605.47828 -44.006287,614.7417 -44.006287,614.7417 L -53.317767,623.55759 L -71.582468,609.5687 L -62.571587,603.95463 z"
     id="path3528" />
  <path
     id="path3544"
     d="M 40.850292,669.49629 L 58.37772,684.49084 L 66.4149,703.16869 L 61.81328,708.6976 L 38.771977,683.073 L 40.850292,669.49629 z"
     style="fill:none;fill-rule:evenodd;stroke:#0000ff;stroke-width:0.45208579px;stroke-linecap:butt;stroke-linejoin:miter;stroke-opacity:1" />
  <path
     style="fill:none;fill-rule:evenodd;stroke:#0000ff;stroke-width:0.45208579px;stroke-linecap:butt;stroke-linejoin:miter;stroke-opacity:1"
     d="M 30.540933,623.98227 L 39.634173,645.1804 L 38.586543,665.48707 L 32.014833,668.41219 L 22.674923,635.2416 L 30.540933,623.98227 z"
     id="path3546" />
  <path
     id="path3554"
     d="M 66.73475,698.4481 L 85.5268,697.55184 L 100.763,703.75026 L 101.13805,709.28643 L 73.11804,707.15327 L 66.73475,698.4481 z"
     style="fill:none;fill-rule:evenodd;stroke:#0000ff;stroke-width:0.35857609px;stroke-linecap:butt;stroke-linejoin:miter;stroke-opacity:1" />
  <path
     style="fill:none;fill-rule:evenodd;stroke:#0000ff;stroke-width:0.26357368px;stroke-linecap:butt;stroke-linejoin:miter;stroke-opacity:1"
     d="M 62.82833,709.08048 L 62.32609,722.82617 L 56.89147,731.56429 L 52.84936,729.90851 L 56.11701,710.61864 L 62.82833,709.08048 z"
     id="path3558"
     inkscape:transform-center-x="1.1323843"
     inkscape:transform-center-y="2.64788" />
  <path
     id="path3560"
     d="M 68.31967,703.78472 L 76.04649,715.1642 L 76.83421,725.42429 L 72.59575,726.48057 L 63.81868,708.99516 L 68.31967,703.78472 z"
     style="fill:none;fill-rule:evenodd;stroke:#0000ff;stroke-width:0.26357368px;stroke-linecap:butt;stroke-linejoin:miter;stroke-opacity:1"
     inkscape:transform-center-x="-11.355213"
     inkscape:transform-center-y="-2.54186" />
  <path
     id="path4405"
     d="M 115.35246,564.54486 L 124.40562,593.46025 L 123.36261,621.15964 L 116.81987,625.14966 L 107.52113,579.90319 L 115.35246,564.54486 z"
     style="fill:none;fill-rule:evenodd;stroke:#0000ff;stroke-width:0.52683836px;stroke-linecap:butt;stroke-linejoin:miter;stroke-opacity:1" />
  <path
     style="fill:none;fill-rule:evenodd;stroke:#0000ff;stroke-width:0.54894787px;stroke-linecap:butt;stroke-linejoin:miter;stroke-opacity:1"
     d="M 145.47042,561.31249 L 146.54307,592.35983 L 137.58574,617.43677 L 129.7257,617.97976 L 133.04975,571.73432 L 145.47042,561.31249 z"
     id="path4407" />
  <path
     style="fill:none;fill-rule:evenodd;stroke:#0000ff;stroke-width:1.29834664px;stroke-linecap:butt;stroke-linejoin:miter;stroke-opacity:1"
     d="M 892.66337,432.97358 L 884.90503,445.69356 L 890.27559,450.41834 L 885.57005,458.5885 L 880.72737,454.23415 L 854.12426,493.88269 L 914.30231,536.11241 C 914.30231,536.11241 942.05296,498.22516 940.37758,496.09344 C 938.70217,493.96171 935.37409,495.45031 937.11854,492.8504 C 938.86301,490.25051 940.67655,482.91896 942.78807,484.40073 C 944.89956,485.88245 946.2306,489.68456 947.97507,487.08467 C 949.71954,484.48476 953.46108,476.59416 953.46108,476.59416 L 892.66337,432.97358 z"
     id="path4433" />
  <path
     style="fill:none;fill-rule:evenodd;stroke:#0000ff;stroke-width:1.29834664px;stroke-linecap:butt;stroke-linejoin:miter;stroke-opacity:1"
     d="M 907.13263,475.63198 C 905.85881,475.2161 900.24702,476.05812 900.24702,476.05812 L 897.504,481.3034 C 897.504,481.3034 897.36586,490.76664 898.42164,491.5075 C 899.47739,492.24838 903.31016,496.37206 906.2939,496.55386 C 909.27763,496.73564 913.13364,495.61747 914.8781,493.01758 C 916.62257,490.41768 917.25406,483.69068 917.25406,483.69068 L 913.14599,476.50577 L 907.13263,475.63198 z"
     id="path4435" />
  <path
     style="fill:none;fill-rule:evenodd;stroke:#0000ff;stroke-width:1.29834664px;stroke-linecap:butt;stroke-linejoin:miter;stroke-opacity:1"
     d="M 885.16595,511.84198 C 886.03817,510.54204 891.39787,501.39693 893.23409,499.81742 C 895.07034,498.23793 898.70824,497.44477 899.76399,498.18564 C 900.81975,498.92652 904.45767,498.13334 903.6772,500.45371 C 902.89674,502.77407 900.54397,506.85913 899.93567,508.34432 C 899.32738,509.82949 893.17587,518.41895 893.17587,518.41895 L 889.09049,516.98606 L 885.16595,511.84198 z"
     id="path4437" />
  <path
     id="path4439"
     d="M 944.22789,538.69401 L 937.73991,516.25132 L 948.35754,500.32363 L 960.96248,501.69499 L 962.68141,534.02185 L 944.22789,538.69401 z"
     style="fill:none;fill-rule:evenodd;stroke:#0000ff;stroke-width:0.58097482px;stroke-linecap:butt;stroke-linejoin:miter;stroke-opacity:1" />
  <path
     style="fill:none;fill-rule:evenodd;stroke:#0000ff;stroke-width:0.58097482px;stroke-linecap:butt;stroke-linejoin:miter;stroke-opacity:1"
     d="M 885.34178,395.31244 L 907.47461,402.78948 L 914.49699,420.59711 L 906.17869,430.16639 L 878.64964,413.13313 L 885.34178,395.31244 z"
     id="path4441" />
</svg>
